<svg xmlns="http://www.w3.org/2000/svg" viewBox="0 0 24 22" width="40" height="37">
	<style>
		tspan { white-space:pre }
		.shp0 { fill: none;stroke: #2a3b56;stroke-width: 2 } 
		.shp1 { fill: none;stroke: #2a3b56;stroke-linecap:square;stroke-width: 2 } 
	</style>
	<g id="coins">
		<path id="Path" class="shp0" d="M3.5 4.45L3.5 7.73C3.5 9.08 5.7 10.18 8.41 10.18C11.12 10.18 13.32 9.08 13.32 7.73L13.32 4.45" />
		<path id="Path" class="shp0" d="M3.5 7.73L3.5 11C3.5 12.36 5.7 13.45 8.41 13.45C9.67 13.45 10.81 13.22 11.68 12.83" />
		<path id="Path" class="shp0" d="M3.5 11L3.5 14.27C3.5 15.63 5.7 16.73 8.41 16.73C9.67 16.73 10.81 16.49 11.68 16.1" />
		<path id="Oval" class="shp1" d="M8.41 6.91C5.69 6.91 3.5 5.81 3.5 4.45C3.5 3.1 5.69 2 8.41 2C11.12 2 13.32 3.1 13.32 4.45C13.32 5.81 11.12 6.91 8.41 6.91Z" />
		<path id="Path" class="shp0" d="M11.68 11L11.68 14.27C11.68 15.63 13.88 16.73 16.59 16.73C19.3 16.73 21.5 15.63 21.5 14.27L21.5 11" />
		<path id="Path" class="shp0" d="M11.68 14.27L11.68 17.55C11.68 18.9 13.88 20 16.59 20C19.3 20 21.5 18.9 21.5 17.55L21.5 14.27" />
		<path id="Oval" class="shp1" d="M16.59 13.45C13.88 13.45 11.68 12.36 11.68 11C11.68 9.64 13.88 8.55 16.59 8.55C19.31 8.55 21.5 9.64 21.5 11C21.5 12.36 19.31 13.45 16.59 13.45Z" />
	</g>
</svg>