<svg xmlns="http://www.w3.org/2000/svg" viewBox="0 0 8 12" width="40" height="60">
	<style>
		tspan { white-space:pre }
		.shp0 { fill: #8e8f96 } 
	</style>
	<path id="Path 16232" fill-rule="evenodd" class="shp0" d="M7.28 6.52L7.28 6.52L4.17 11.31L1.06 6.52L1.07 6.52C0.67 5.92 0.44 5.22 0.44 4.46C0.44 2.4 2.11 0.73 4.17 0.73C6.23 0.73 7.9 2.4 7.9 4.46C7.9 5.22 7.67 5.92 7.28 6.52ZM5.74 4.02C5.74 3.16 5.04 2.46 4.17 2.46C3.31 2.46 2.61 3.16 2.61 4.02C2.61 4.89 3.31 5.59 4.17 5.59C5.03 5.59 5.74 4.89 5.74 4.02Z" />
</svg>