<svg width="33" height="33" xmlns="http://www.w3.org/2000/svg">

 <g>
  <title>background</title>
  <rect fill="none" id="canvas_background" height="402" width="582" y="-1" x="-1"/>
 </g>
 <g>
  <title>Layer 1</title>
  <path id="svg_2" fill="#1C75BC" d="m16.849,7.324l0.004,0.002l1.788,0c0.354,-1.082 0.824,-3.205 -0.227,-4.84c-0.848,-1.316 -2.438,-1.986 -4.726,-1.986s-3.876,0.67 -4.724,1.986c-1.052,1.635 -0.582,3.758 -0.228,4.84l1.794,0c-0.309,-0.684 -0.934,-2.719 -0.149,-3.932c0.52,-0.803 1.632,-1.212 3.308,-1.212s2.789,0.409 3.309,1.212c0.784,1.213 0.157,3.248 -0.148,3.932l0.004,0l-0.005,-0.002z"/>
  <path id="svg_4" fill="#1C75BC" d="m28.656,25.274c-0.539,0 -2.029,-0.212 -2.885,-0.709s-2.563,-1.19 -3.799,-0.358c-0.17,0.113 -2.387,1.868 -2.387,1.868s0.119,1.096 1.354,0.758c1.232,-0.339 2.434,-1.581 2.824,-1.118c0.189,0.226 4.248,4.869 4.248,4.869s0.67,-0.39 1.393,-0.39c0,0 1.053,-0.796 1.053,-2.473s-1.053,-2.447 -1.053,-2.447s-0.443,0 -0.748,0z"/>
  <path id="svg_5" fill="#1C75BC" d="m21.023,24.432c0,0 -1.842,1.344 -1.908,1.477s0.305,2.229 2.559,1.176c0.889,-0.416 1.672,-1.102 1.896,-0.849c0.191,0.215 3.998,4.603 3.998,4.603s-0.498,1.275 -2,0.628c0,0 -1.713,1.774 -4.188,0.676c-0.957,-0.425 -1.875,-1.947 -2.869,-1.947c-0.418,0 -1.457,0 -1.457,0s-1.05,-0.796 -1.05,-2.473s1.05,-2.447 1.05,-2.447s0.527,0 0.756,0c0.418,0 0.725,-0.208 1.146,-0.472c0.857,-0.533 1.749,-0.432 2.067,-0.372z"/>
  <path id="svg_6" fill="#58595B" d="m22.311,10.006c-0.125,-0.926 -0.811,-1.682 -1.852,-1.682l-1.146,0l-12.396,0c-1.041,0 -1.725,0.756 -1.851,1.682l-2.523,17.413c0,0.931 0.753,1.683 1.683,1.683l10.928,0c-0.696,-2.816 0.958,-4.719 1.595,-4.719c0.723,0 1.16,-0.041 2.104,-0.563c1.117,-0.619 2.783,-0.34 2.783,-0.34c0.938,-0.525 1.82,-0.592 2.553,-0.477l-1.878,-12.997zm-13.787,3.09c-0.696,0 -1.262,-0.564 -1.262,-1.262s0.565,-1.263 1.262,-1.263c0.697,0 1.264,0.565 1.264,1.263s-0.566,1.262 -1.264,1.262zm8.227,9.695c-0.576,0.547 -1.371,0.877 -2.381,0.992l0,1.231l-1.367,0l0,-1.231c-1.718,-0.203 -2.799,-1.107 -3.24,-2.713l2.492,-0.463c0.213,0.731 0.754,1.098 1.616,1.098c0.675,0 1.011,-0.187 1.011,-0.555c0,-0.195 -0.078,-0.347 -0.234,-0.456c-0.158,-0.11 -0.432,-0.203 -0.834,-0.286c-1.566,-0.318 -2.559,-0.725 -2.979,-1.218c-0.419,-0.495 -0.63,-1.062 -0.63,-1.702c0,-0.707 0.229,-1.334 0.69,-1.881c0.46,-0.55 1.165,-0.895 2.108,-1.037l0,-1.216l1.367,0l0,1.188c1.531,0.17 2.534,0.898 3.005,2.186l-2.23,0.697c-0.227,-0.604 -0.691,-0.903 -1.396,-0.903c-0.588,0 -0.883,0.187 -0.883,0.569c0,0.139 0.053,0.256 0.15,0.352c0.1,0.098 0.375,0.197 0.826,0.297c1.029,0.227 1.768,0.426 2.213,0.605c0.446,0.176 0.818,0.479 1.116,0.902c0.295,0.426 0.443,0.926 0.443,1.505c0.001,0.811 -0.288,1.492 -0.863,2.039zm2.103,-9.695c-0.699,0 -1.264,-0.564 -1.264,-1.262s0.564,-1.263 1.264,-1.263c0.695,0 1.26,0.565 1.26,1.263s-0.565,1.262 -1.26,1.262z"/>
 </g>
</svg>