<svg width="520" height="520" xmlns="http://www.w3.org/2000/svg">

 <g>
  <title>background</title>
  <rect fill="none" id="canvas_background" height="402" width="582" y="-1" x="-1"/>
 </g>
 <g>
  <title>Layer 1</title>
  <path id="svg_3" fill="#A0CECB" d="m439.5,405c8.29,0 15,6.72 15,15s-6.71,15 -15,15c-8.28,0 -15,-6.72 -15,-15s6.72,-15 15,-15z"/>
  <path id="svg_4" fill="#A0CECB" d="m99.5,445c8.29,0 15,6.72 15,15s-6.71,15 -15,15c-8.279,0 -15,-6.72 -15,-15s6.721,-15 15,-15z"/>
  <path id="svg_5" fill="#A0CECB" d="m94.5,85c11.05,0 20,8.95 20,20s-8.95,20 -20,20c-11.04,0 -20,-8.95 -20,-20s8.96,-20 20,-20z"/>
  <path id="svg_6" fill="#FCD884" d="m475.45,283.96c0.03,0.34 0.05,0.67 0.05,1.01c0,5.07 -3.85,9.41 -9.01,9.931c-0.34,0.029 -0.67,0.05 -1.01,0.05c-5.07,0 -9.41,-3.851 -9.931,-9c-0.03,-0.34 -0.05,-0.681 -0.05,-1.01c0,-5.08 3.85,-9.421 9,-9.94c5.501,-0.551 10.401,3.459 10.951,8.959z"/>
  <path id="svg_7" fill="#FCD884" d="m454.45,64c0.03,0.34 0.05,0.68 0.05,1.01c0,5.08 -3.85,9.42 -9,9.94c-0.34,0.03 -0.68,0.05 -1.01,0.05c-5.08,0 -9.42,-3.85 -9.94,-9.01c-0.03,-0.34 -0.05,-0.67 -0.05,-1.01c0,-5.07 3.85,-9.41 9.01,-9.93c5.49,-0.55 10.39,3.46 10.94,8.95z"/>
  <rect id="svg_8" fill="#FCD884" y="104.056" x="385.446" width="19.999" transform="matrix(-0.0995,-0.995,0.995,-0.0995,321.2894,518.8844) " height="19.999"/>
  <rect id="svg_9" fill="#FCD884" y="395.945" x="343.555" width="20" transform="matrix(-0.0995,-0.995,0.995,-0.0995,-15.1917,798.1415) " height="20"/>
  <path id="svg_10" fill="#FCD884" d="m344.45,284c0.03,0.34 0.05,0.68 0.05,1.01c0,5.08 -3.85,9.42 -9,9.94c-0.34,0.03 -0.68,0.05 -1.01,0.05c-5.08,0 -9.42,-3.85 -9.94,-9.01c-0.03,-0.34 -0.05,-0.67 -0.05,-1.01c0,-5.07 3.85,-9.41 9.01,-9.931c5.49,-0.549 10.39,3.461 10.94,8.951z"/>
  <path id="svg_11" fill="#FCD884" d="m304.4,463.01c0.029,0.34 0.05,0.681 0.05,1.01c0,5.08 -3.851,9.421 -9,9.94c-0.33,0.03 -0.67,0.05 -0.99,0.05c-5.09,0 -9.44,-3.84 -9.96,-9.01c-0.03,-0.34 -0.05,-0.68 -0.05,-1.01c0,-5.08 3.85,-9.42 9.01,-9.94c5.49,-0.55 10.39,3.46 10.94,8.96z"/>
  <rect id="svg_12" fill="#FCD884" y="74.056" x="263.555" width="19.999" transform="matrix(-0.0995,-0.995,0.995,-0.0995,217.1395,364.617) " height="20"/>
  <path id="svg_13" fill="#FCD884" d="m214.45,284.01c0.03,0.34 0.05,0.67 0.05,1.01c0,5.07 -3.85,9.41 -9,9.931c-0.34,0.03 -0.68,0.05 -1.01,0.05c-5.08,0 -9.42,-3.85 -9.94,-9c-0.03,-0.34 -0.05,-0.68 -0.05,-1.01c0,-5.08 3.85,-9.42 9.01,-9.94c5.49,-0.551 10.39,3.459 10.94,8.959z"/>
  <path id="svg_14" fill="#FCD884" d="m194.45,54.01c0.03,0.34 0.05,0.67 0.05,1.01c0,5.07 -3.85,9.41 -9,9.93c-0.34,0.03 -0.68,0.05 -1.01,0.05c-5.08,0 -9.42,-3.85 -9.94,-9c-0.03,-0.34 -0.05,-0.68 -0.05,-1.01c0,-5.08 3.85,-9.42 9.01,-9.94c5.49,-0.55 10.39,3.46 10.94,8.96z"/>
  <path id="svg_15" fill="#FCD884" d="m74.45,404.01c0.03,0.34 0.05,0.67 0.05,1.01c0,5.07 -3.85,9.41 -9,9.931c-0.34,0.03 -0.68,0.05 -1.01,0.05c-5.08,0 -9.42,-3.85 -9.94,-9c-0.03,-0.34 -0.05,-0.68 -0.05,-1.01c0,-5.08 3.85,-9.42 9.01,-9.94c5.49,-0.551 10.39,3.459 10.94,8.959z"/>
  <rect id="svg_16" fill="#FCD884" y="264.055" x="45.446" width="19.999" transform="matrix(-0.0995,-0.995,0.995,-0.0995,-211.7316,356.4987) " height="20"/>
  <path id="svg_17" fill="#D7DEED" d="m114.123,395.76c-2.68,0 -5.352,-1.07 -7.322,-3.186c-8.331,-8.948 -12.381,-17.34 -12.381,-25.654c0,-8.413 4.324,-20.206 24.924,-28.609c8.063,-3.291 17.676,-8.694 17.676,-15.74c0,-4.177 -3.027,-9.69 -8.101,-14.749c-0.839,-0.839 -1.393,-1.309 -1.397,-1.313c-0.16,-0.133 -1.217,-1.021 -2.691,-2.495c-5.213,-5.2 -13.971,-15.88 -13.971,-28.893c0,-10.021 5.229,-24.098 30.133,-34.259c8.064,-3.291 17.678,-8.694 17.678,-15.741c0,-4.17 -3.029,-9.68 -8.102,-14.74c-0.838,-0.838 -1.393,-1.308 -1.398,-1.313c-0.159,-0.132 -1.216,-1.021 -2.691,-2.496c-5.211,-5.197 -13.969,-15.875 -13.969,-28.891c0,-10.02 5.226,-24.097 30.121,-34.258c8.07,-3.292 17.689,-8.697 17.689,-15.752c0,-2.238 -0.837,-4.798 -2.486,-7.611c-2.794,-4.764 -1.197,-10.891 3.567,-13.685c4.764,-2.794 10.89,-1.197 13.685,3.567c3.473,5.922 5.234,11.887 5.234,17.729c0,10.025 -5.229,24.109 -30.133,34.27c-8.063,3.291 -17.678,8.694 -17.678,15.741c0,4.17 3.029,9.68 8.102,14.739c0.838,0.838 1.393,1.308 1.397,1.313c0.161,0.133 1.218,1.022 2.692,2.497c5.211,5.197 13.969,15.875 13.969,28.891c0,10.02 -5.226,24.097 -30.121,34.259c-8.07,3.291 -17.689,8.694 -17.689,15.74c0,4.169 3.029,9.68 8.104,14.741c0.836,0.835 1.391,1.306 1.396,1.311c0.16,0.133 1.217,1.022 2.693,2.499c5.209,5.194 13.967,15.873 13.967,28.899c0,10.02 -5.225,24.097 -30.12,34.259c-3.754,1.531 -12.479,5.577 -12.479,10.091c0,1.35 0.684,5.222 7.02,12.025c3.763,4.042 3.537,10.369 -0.505,14.133c-1.928,1.793 -4.373,2.681 -6.813,2.681z"/>
  <path id="svg_18" fill="#A0CECB" d="m426.568,328.366c-7.558,-1.597 -10.713,-3.793 -11.928,-4.966c-1.059,-1.021 -1.471,-1.996 -1.471,-3.48c0,-1.777 0.67,-5.801 5.161,-12.781c6.815,-10.6 10.129,-19.967 10.129,-28.639c0,-7.798 -2.821,-14.831 -8.157,-20.337c-10.365,-10.701 -26.863,-12.346 -28.711,-12.499c-2.229,-0.184 -11.472,-1.822 -15.98,-6.482c-1.744,-1.799 -2.521,-3.78 -2.521,-6.421c0,-3.194 1.206,-8.876 6.981,-17.858c1.359,-2.148 1.293,-2.065 2.1,-3.426c2.335,-3.929 4.513,-8.699 5.524,-11.708l0,-0.001c7.357,-20.667 -1.776,-37.956 -24.93,-44.491c-0.001,0 -0.001,0 -0.002,0l0,0c-2.627,-0.745 -6.685,-1.578 -9.407,-1.798c-2.86,-0.262 -11.265,-1.886 -15.732,-6.183c-1.946,-1.879 -2.814,-3.95 -2.814,-6.715c0,-3.198 1.206,-8.885 6.951,-17.821c6.815,-10.6 10.129,-19.964 10.129,-28.629c0,-7.782 -2.811,-14.804 -8.122,-20.302c-3.048,-3.16 -6.921,-5.826 -11.513,-7.923c-5.021,-2.293 -10.955,-0.084 -13.251,4.94c-2.295,5.023 -0.083,10.956 4.94,13.251c2.302,1.052 4.128,2.269 5.434,3.622c1.737,1.798 2.512,3.775 2.512,6.412c0,3.194 -1.206,8.877 -6.951,17.813c-6.815,10.601 -10.129,19.968 -10.129,28.638c0,8.172 3.087,15.47 8.938,21.117c10.394,9.998 26.157,11.563 27.89,11.706c3.169,0.366 6.482,1.222 9.112,2.25l0,0c3.269,1.283 6.794,3.272 8.465,6.362c1.161,2.137 1.14,5.174 0.604,7.554c-1.138,5.14 -3.316,9.201 -6.091,13.767c-5.75,8.865 -10.637,18.895 -10.637,29.423c0,7.798 2.821,14.832 8.153,20.333c10.356,10.704 26.856,12.35 28.704,12.502c2.229,0.185 11.478,1.823 15.991,6.483c1.744,1.8 2.521,3.779 2.521,6.421c0,3.198 -1.206,8.887 -6.95,17.819c-5.611,8.723 -8.34,16.442 -8.34,23.601c0,6.91 2.625,13.093 7.583,17.873c4.959,4.789 12.05,8.106 21.679,10.142c0.698,0.147 1.393,0.218 2.078,0.218c4.625,0 8.779,-3.228 9.774,-7.934c1.142,-5.404 -2.312,-10.71 -7.716,-11.853z"/>
  <path id="svg_19" fill="#D7DEED" d="m271.23,445.002c-1.713,0 -3.447,-0.44 -5.033,-1.367c-4.77,-2.785 -8.572,-5.635 -11.625,-8.711c-5.752,-5.784 -8.672,-12.234 -8.672,-19.164c0,-9.447 5.59,-18.764 16.616,-27.691c8.204,-6.647 12.724,-12.983 12.724,-17.838c0,-2.576 -1.347,-5.269 -4.003,-8.003c-4.288,-4.404 -10.057,-6.944 -10.115,-6.97c-0.917,-0.39 -9.511,-4.161 -16.554,-11.409c-6.318,-6.505 -9.658,-14.091 -9.658,-21.938c0,-11.323 6.773,-22.554 20.134,-33.38c8.206,-6.649 12.726,-12.988 12.726,-17.851c0,-2.683 -1.451,-5.479 -4.314,-8.313c-4.219,-4.174 -9.701,-6.61 -9.754,-6.633c-0.955,-0.405 -9.546,-4.175 -16.598,-11.419c-6.324,-6.51 -9.664,-14.096 -9.664,-21.945c0,-11.323 6.775,-22.554 20.135,-33.38c8.206,-6.649 12.726,-12.989 12.726,-17.85c0,-2.61 -1.371,-5.331 -4.075,-8.084c-0.291,-0.297 -0.578,-0.568 -0.856,-0.826c-4.054,-3.751 -4.299,-10.078 -0.548,-14.131c3.752,-4.055 10.08,-4.299 14.132,-0.547c0.521,0.481 1.053,0.991 1.562,1.511c6.396,6.514 9.786,14.155 9.786,22.078c0,11.33 -6.774,22.563 -20.134,33.389c-8.207,6.65 -12.727,12.986 -12.727,17.841c0,2.576 1.348,5.268 4.003,8.001c4.288,4.405 10.058,6.945 10.115,6.97c0.871,0.37 9.034,3.951 15.966,10.81c6.704,6.635 10.246,14.424 10.246,22.528c0,11.33 -6.774,22.564 -20.134,33.39c-8.206,6.649 -12.726,12.985 -12.726,17.841c0,2.575 1.347,5.268 4.003,8.002c4.242,4.365 10.01,6.93 10.065,6.954c0.956,0.405 9.546,4.175 16.597,11.418c6.325,6.512 9.665,14.098 9.665,21.946c0,11.322 -6.774,22.553 -20.135,33.379c-8.542,6.916 -9.205,11.049 -9.205,12.15c0,1.454 0.962,3.16 2.86,5.069c1.792,1.806 4.321,3.666 7.522,5.536c4.77,2.785 6.378,8.909 3.592,13.678c-1.858,3.184 -5.206,4.959 -8.645,4.959z"/>
  <path id="svg_20" fill="#D7DEED" d="m464.49,225.002c-1.751,0 -3.524,-0.46 -5.136,-1.427l-27.43,-16.46c-2.3,-1.397 -4.162,-3.315 -5.436,-5.577c-1.302,-2.283 -1.989,-4.888 -1.989,-7.538c0,-5.352 2.851,-10.381 7.44,-13.124l19.105,-11.466l-14.426,-10.82c-3.836,-2.884 -6.12,-7.457 -6.12,-12.24c0,-5.832 3.327,-11.203 8.478,-13.764l14.508,-7.259c0.621,-0.31 1.015,-0.95 1.015,-1.637l0,-4.69c0,-5.523 4.478,-10 10,-10s10,4.477 10,10l0,4.69c0,8.33 -4.628,15.813 -12.076,19.529l-7.777,3.891l13.733,10.3c3.825,2.855 6.12,7.436 6.12,12.24l0,0.35c0,5.371 -2.86,10.405 -7.466,13.139l-18.095,10.861l20.707,12.426c4.735,2.842 6.271,8.984 3.429,13.72c-1.875,3.125 -5.187,4.856 -8.584,4.856z"/>
  <path id="svg_21" fill="#A0CECB" d="m221.202,446.052c-0.535,0 -1.077,-0.043 -1.622,-0.133l-31.57,-5.149c-2.561,-0.418 -5,-1.498 -7.057,-3.121c-2.092,-1.673 -3.693,-3.833 -4.681,-6.286c-1.991,-4.992 -1.206,-10.718 2.038,-14.97l13.519,-17.725l-17.404,-4.716c-4.626,-1.263 -8.437,-4.663 -10.21,-9.1c-0.064,-0.16 -0.124,-0.321 -0.18,-0.484c-1.922,-5.243 -0.79,-11.253 2.944,-15.438l10.817,-12.127c0.465,-0.521 0.591,-1.245 0.332,-1.895l-1.73,-4.354c-2.041,-5.132 0.464,-10.946 5.596,-12.987c5.135,-2.042 10.947,0.465 12.988,5.597l1.729,4.35c3.079,7.732 1.55,16.395 -3.991,22.604l-5.797,6.499l16.571,4.49c4.63,1.267 8.438,4.661 10.209,9.088l0.151,0.384c1.965,4.92 1.18,10.647 -2.067,14.899l-12.823,16.813l23.835,3.889c5.45,0.889 9.149,6.028 8.26,11.479c-0.799,4.906 -5.043,8.392 -9.857,8.393z"/>
 </g>
</svg>