<?xml version="1.0" encoding="utf-8"?>
<!-- Generator: Adobe Illustrator 19.2.1, SVG Export Plug-In . SVG Version: 6.00 Build 0)  -->
<svg version="1.1" id="Слой_1" xmlns="http://www.w3.org/2000/svg" xmlns:xlink="http://www.w3.org/1999/xlink" x="0px" y="0px"
	 viewBox="0 0 250 250" style="enable-background:new 0 0 250 250;" xml:space="preserve">
<style type="text/css">
	.st0{fill:#FFFFFF;}
	.st1{fill:#DCDCDC;stroke:#1C2125;stroke-width:0.75;stroke-miterlimit:10;}
	.st2{fill:#1C2125;stroke:#1C2125;stroke-width:0.75;stroke-miterlimit:10;}
	.st3{fill:#DCDCDC;stroke:#1B2023;stroke-width:0.75;stroke-miterlimit:10;}
	.st4{fill:#FFFFFF;stroke:#1C2125;stroke-width:0.75;stroke-miterlimit:10;}
	.st5{fill:#FFFFFF;stroke:#1C2125;stroke-miterlimit:10;}
	.st6{fill:#1C2125;}
	.st7{fill:none;stroke:#1C2125;stroke-width:0.5;stroke-miterlimit:10;}
	.st8{fill:#DFDFDF;stroke:#1C2125;stroke-width:0.75;stroke-miterlimit:10;}
	.st9{fill:none;stroke:#1C2125;stroke-width:0.75;stroke-miterlimit:10;}
	.st10{fill:#C0C0C0;}
	.st11{fill:#383838;stroke:#1C2125;stroke-width:0.75;stroke-miterlimit:10;}
</style>
<g id="Слой_1_2_">
	<g id="Слой_1_1_">
		<rect class="st0" width="250" height="250"/>
	</g>
</g>
<g id="Слой_2">
	<g>
		<path class="st1" d="M195,244.7c-9.7,4.4-27.7-15-29.1-16.3c-2.4-2.4-17.6-57.3-14.4-63.2c1.6-3,26.3,33.1,28.3,37.2
			c1.3,2.6,12.9,24.8,15.9,41"/>
		<path class="st2" d="M168.3,249.8c-0.2-16.2-0.8-17.6-2.7-32.9c-1-8.1-4-37.6-10.2-48.1c-3.6-6.1-13.4-10.8-16.9-11.8
			c-17.9-5.1-41.1-3.1-54.8,9.4S70.8,200.6,67.9,219c-0.4,2.5-1.2,10.5-1.3,30.8L168.3,249.8L168.3,249.8z"/>
		<g>
			<path class="st3" d="M73.4,250c0.3-14.4,4.8-30.3,8.9-43.2c4-12.9,9-29.3-0.5-38.7c-15,15.3-26.5,37.8-33.2,69.5
				c-0.7,3.1-1.1,7.6-1.1,12.3"/>
		</g>
		<path class="st4" d="M183,157.1c1.7-5.7,1.7-11.7,1.3-17.6c-0.1-1.9-0.3-3.1-0.6-4.8c-0.2-0.9-0.7-1.4-1.3-1.1
			c-0.3,0.1-0.3,0.6-0.4,0.9c-0.1,2.7,0.2,9.7-0.5,9.5c0-0.8-0.1-1.5-1.1-1.5c-0.7,0-0.6,1-1.1,1.1c-0.4,0.1-0.1-1.1-1-1.2
			c-1.1-0.1-0.9,1.1-1.2,1.2c-0.3,0-0.3-0.8-0.9-0.9c-0.7-0.1-1,1.3-1,1.9c-0.2,3.7-0.4,7.4-0.5,11"/>
		<path class="st1" d="M174.9,155.7c-0.3,1.1,1.5,48.4,4.3,70.9c0.6,5.3,2,17.7,11.1,18.7s12.1-9.7,12.2-13.2
			c0.4-19.9-5.6-39.4-11.4-58.5c-0.9-2.9-7.1-19.8-7.1-19.8C182.3,154.7,175.4,155.5,174.9,155.7z"/>
		<g>
			<path class="st5" d="M87.6,127.2c-1.4-0.3-2.9-0.6-4.1,0.1c-0.8,0.5-1.3,1.5-1.6,2.4c-0.6,2-0.2,4.6,1.6,5.7
				c1.3,0.8,3.5,0.5,5.1,0.3"/>
			<path class="st5" d="M87.8,129.7c0.6,13.9,11.5,32.6,29.8,33.7c18.5,1.2,31.3-13.6,32.1-38.3c0.3-9-2.8-47.1-33.4-46.2
				C85.1,79.9,87,109,87.8,129.7z"/>
			<g>
				<g>
					<path class="st6" d="M107.1,131.9c1.6,0,1.6-2.5,0-2.5S105.5,131.9,107.1,131.9L107.1,131.9z"/>
				</g>
			</g>
			<g>
				<g>
					<path class="st6" d="M133.1,131.8c1.6,0,1.6-2.5,0-2.5S131.5,131.8,133.1,131.8L133.1,131.8z"/>
				</g>
			</g>
			<path class="st2" d="M144.1,104.6c0.7,0.9,1.5,3.1,1.8,3.9s0.3,1.7,0.3,2.6c0,1,0.1,2.3,0.6,2.6c0.3,0.1,0.8-0.3,1,0.2
				c0.1,0.2,0.1,0.5,0.2,0.7c0.5,4.9-0.2,7,0.4,11.9c0.2,1.4,0.7,3.1,1.5,2.9c0.7-0.2,1-1.9,1.1-3.2c0.6-7.3,0.5-12.4,0.3-19.8"/>
			<path class="st7" d="M116.6,139.8c0.6,1.2,1.8,2.1,3.1,2.2s2.7-0.4,3.6-1.4"/>
			<path class="st2" d="M88.2,131.5c1.4-0.1,1.9-2,2-3.5c0.4-4.1,0.7-3.1,1.1-7.1c0.1-0.7,0.1-1.4,0.4-1.9s1-1,1.6-0.8
				c0.3,0.1,0.6,0.4,0.9,0.5c0.5,0.1,1-0.3,1.3-0.7c2.3-2.7,2.9-6.6,3.7-10.2c0.4-1.6,0.9-3.3,2.1-4.2c1-0.7,2.3-0.8,3.5-0.8
				c12.4,0.3,21.7,5,34,5.8c3.4,0.2,6.7,0.8,10.1,0.9c3.2,0.1,9.2-2.3,10.2-5.6c2.4-7.7-1.5-14.1-13.3-16.3
				c-4.4-0.8-14.1-6.6-20.5-7.8c-8.5-1.6-17.9-1.2-25.6,2.6c-7.9,3.8-14.1,15.1-14.7,21.4C84,114.7,85,131.6,88.2,131.5z"/>
			<path class="st7" d="M120.2,153.1c-1.5,1.1-0.9,3.8-0.1,4.4c0.8,0.7,2.1,0.7,3,0.2s1.6-1.5,1.9-2.5c0.2-0.7,0.2-1.5-0.2-2.1
				c-0.5-0.7-1.4-1-2.3-0.9S120.9,152.7,120.2,153.1"/>
		</g>
		<g>
			<g>
				<path class="st8" d="M113.1,62.1c-1.6,0.1-2.5-0.3-2.4-3.4c-0.1-3.5-1.9-6.1-4.1-8.7c-4.3-5-5-11.4-2.1-17s8.8-8.6,15.6-7.9
					c5.5,0.5,10.7,5,12.3,10.9c1.4,5,0.4,9.6-2.9,13.6c-2.3,2.8-4.4,5.6-4.4,9.4c0,2.8-0.9,3.2-2.2,3.1H113.1z"/>
			</g>
			<path class="st9" d="M113.2,44.2c4.5,7.3,4.1,17.9,4.1,17.9h1.9c0,0,0.1-10.5,4.6-17.9"/>
			<g>
				<g>
					<g>
						<path class="st10" d="M99,16.5c1.6,2.3,3.1,4.5,4.7,6.8c1.4,2,4.6,0.1,3.2-1.9c-1.6-2.3-3.1-4.5-4.7-6.8
							C100.8,12.6,97.6,14.5,99,16.5L99,16.5z"/>
					</g>
				</g>
				<g>
					<g>
						<path class="st10" d="M116.1,10c0,2.8,0,5.6,0,8.3c0,2.4,3.8,2.4,3.8,0c0-2.8,0-5.6,0-8.3C119.8,7.6,116.1,7.6,116.1,10
							L116.1,10z"/>
					</g>
				</g>
				<g>
					<g>
						<path class="st10" d="M134,14.5c-1.7,2.3-3.4,4.7-5.1,7c-1.4,2,1.8,3.8,3.2,1.9c1.7-2.3,3.4-4.7,5.1-7
							C138.6,14.4,135.4,12.5,134,14.5L134,14.5z"/>
					</g>
				</g>
				<g>
					<g>
						<path class="st10" d="M146.1,28.2c-2.7,1.1-5.4,2.1-8.2,3.2c-2.2,0.9-1.3,4.5,1,3.6c2.7-1.1,5.4-2.1,8.2-3.2
							C149.3,30.9,148.3,27.3,146.1,28.2L146.1,28.2z"/>
					</g>
				</g>
				<g>
					<g>
						<path class="st10" d="M148,46.5c-2.8-0.8-5.6-1.5-8.3-2.3c-2.3-0.6-3.3,3-1,3.6c2.8,0.8,5.6,1.5,8.3,2.3
							C149.3,50.8,150.3,47.2,148,46.5L148,46.5z"/>
					</g>
				</g>
				<g>
					<g>
						<path class="st10" d="M138.9,62.3c-1.8-2.1-3.6-4.2-5.4-6.3c-1.6-1.8-4.2,0.8-2.7,2.7c1.8,2.1,3.6,4.2,5.4,6.3
							C137.8,66.8,140.4,64.1,138.9,62.3L138.9,62.3z"/>
					</g>
				</g>
				<g>
					<g>
						<path class="st10" d="M99.7,65c1.8-2.1,3.7-4.2,5.5-6.3c1.6-1.8-1.1-4.5-2.7-2.7c-1.8,2.1-3.7,4.2-5.5,6.3
							C95.4,64.1,98.1,66.8,99.7,65L99.7,65z"/>
					</g>
				</g>
				<g>
					<g>
						<path class="st10" d="M89,50.1c2.8-0.7,5.5-1.4,8.3-2.1c2.3-0.6,1.3-4.2-1-3.6c-2.8,0.7-5.5,1.4-8.3,2.1
							C85.7,47.1,86.7,50.7,89,50.1L89,50.1z"/>
					</g>
				</g>
				<g>
					<g>
						<path class="st10" d="M88.8,31.6c2.6,1,5.3,2,7.9,3c2.3,0.9,3.2-2.8,1-3.6c-2.6-1-5.3-2-7.9-3C87.6,27.2,86.6,30.8,88.8,31.6
							L88.8,31.6z"/>
					</g>
				</g>
			</g>
			<g>
				<polygon class="st11" points="114.8,71 115.7,73.2 120.1,73.2 121.1,71 				"/>
				<path class="st11" d="M114,68.8h7.9c0.8,0,1.5,0.7,1.5,1.5l0,0c0,0.8-0.7,1.5-1.5,1.5H114c-0.8,0-1.5-0.7-1.5-1.5l0,0
					C112.6,69.5,113.2,68.8,114,68.8z"/>
				<path class="st11" d="M112.4,66.2h11.2c0.8,0,1.5,0.7,1.5,1.5l0,0c0,0.8-0.7,1.5-1.5,1.5h-11.2c-0.8,0-1.5-0.7-1.5-1.5l0,0
					C110.9,66.8,111.6,66.2,112.4,66.2z"/>
				<path class="st11" d="M110.8,63.6h14.4c0.8,0,1.5,0.7,1.5,1.5l0,0c0,0.8-0.7,1.5-1.5,1.5h-14.4c-0.8,0-1.5-0.7-1.5-1.5l0,0
					C109.3,64.3,110,63.6,110.8,63.6z"/>
			</g>
			<path class="st7" d="M113.4,44.2c0-0.6,0.8-1.1,1.4-1s1,0.8,1,1.5c0,0.3-0.3,0.7-0.6,0.6c-0.2-0.1-0.3-0.3-0.3-0.5
				c0-0.9,0.8-1.9,1.7-1.8s1.7,1.1,1.3,2c0,0.1-0.1,0.1-0.1,0.2c-0.2,0.2-0.6-0.1-0.6-0.4c-0.2-0.8,0.4-1.7,1.2-1.8
				c0.5-0.1,1.1,0.1,1.4,0.4c0.3,0.4,0.4,1,0.2,1.5c-0.1,0.2-0.3,0.3-0.5,0.2c-0.1,0-0.1-0.1-0.1-0.2c-0.2-0.8,0.4-1.7,1.2-1.8
				c0.8-0.1,1.6,0.7,1.5,1.5c0,0.3-0.3,0.6-0.6,0.6c-0.3,0-0.4-0.5-0.4-0.8c0.1-0.5,0.5-1,1-1.1s1.1,0.1,1.3,0.6
				c0,0.1,0.1,0.2,0.1,0.3s0.2,0.1,0.3,0"/>
		</g>
	</g>
</g>
</svg>
