<svg width="50" height="50" xmlns="http://www.w3.org/2000/svg">

 <g>
  <title>background</title>
  <rect fill="none" id="canvas_background" height="402" width="582" y="-1" x="-1"/>
 </g>
 <g>
  <title>Layer 1</title>
  <path id="svg_1" fill-rule="evenodd" d="m31.382,8.127l-8.386,0c2.972,-0.902 5.781,-1.998 8.386,-3.337l0,3.337zm-20.458,2.782l28.152,0l0,36.308l-28.152,0l0,-36.308zm22.845,6.883l-1.123,-1.123l-4.515,4.332l-0.619,-0.617l4.424,-4.424l-1.122,-1.123l-6.033,5.512l0,2.375l0.675,0.675l-0.9,0.881l-8.414,-8.413l-1.742,1.742l7.561,9.206l-7.46,7.294l1.827,1.827l8.095,-8.28l8.163,8.28l1.826,-1.827l-8.256,-8.227l0.88,-0.901l0.674,0.674l2.376,0l5.512,-6.032l-1.123,-1.123l-4.424,4.424l-0.618,-0.619l4.336,-4.513zm0.338,24.786c-0.298,-0.099 -0.737,-0.761 -1.337,-1.06c0.525,-0.533 2.689,-0.616 2.754,0.311c0.032,0.451 -0.931,0.911 -1.417,0.749zm-4.117,-1.151c-1.111,0.513 -2.489,0.999 -3.576,0.199l0.738,-0.137c0.387,-0.053 0.655,-0.407 0.601,-0.788c-0.052,-0.383 -0.407,-0.649 -0.788,-0.597c-1.043,0.142 -1.779,0.546 -1.842,1.375c-0.03,0.39 0.092,0.853 0.634,1.295c0.401,0.327 0.912,0.554 1.351,0.616c1.223,0.172 2.368,-0.185 3.466,-0.694c0.358,-0.166 0.654,-0.321 0.998,-0.513c0.917,0.588 0.884,1.313 2.089,1.719c1.359,0.459 3.418,-0.647 3.272,-2.221c-0.146,-1.587 -2.283,-2.085 -3.58,-1.804c-1.145,0.25 -2.158,0.993 -3.363,1.55zm-12.768,0.091c-0.6,0.299 -1.039,0.961 -1.337,1.06c-0.486,0.162 -1.449,-0.298 -1.417,-0.748c0.065,-0.928 2.229,-0.844 2.754,-0.312zm7.011,1.257c0.542,-0.443 0.664,-0.905 0.634,-1.295c-0.063,-0.829 -0.799,-1.233 -1.842,-1.375c-0.381,-0.051 -0.736,0.214 -0.788,0.597c-0.053,0.381 0.214,0.735 0.601,0.788l0.738,0.137c-1.087,0.8 -2.465,0.314 -3.576,-0.199c-1.205,-0.557 -2.217,-1.3 -3.365,-1.55c-1.297,-0.281 -3.434,0.217 -3.58,1.804c-0.146,1.575 1.913,2.681 3.272,2.221c1.205,-0.406 1.172,-1.132 2.089,-1.719c0.344,0.192 0.64,0.347 0.998,0.513c1.098,0.509 2.243,0.866 3.466,0.694c0.441,-0.062 0.953,-0.289 1.353,-0.616zm17.626,-34.648l-7.695,0l0,-8.127c-4.253,2.521 -7.714,4.233 -12.55,5.647c-3.759,1.1 -10.162,2.48 -13.473,2.48l0,41.873l33.717,0l0,-41.873l0.001,0z" clip-rule="evenodd"/>
 </g>
</svg>