<svg width="128" height="128" xmlns="http://www.w3.org/2000/svg">

 <g>
  <title>background</title>
  <rect fill="none" id="canvas_background" height="402" width="582" y="-1" x="-1"/>
 </g>
 <g>
  <title>Layer 1</title>
  <path id="svg_1" fill="#F5CD0C" d="m53,86.859l0,-1.719c0,-4.44 3.629,-7.944 8.333,-8.133c0.271,-0.756 0.552,-1.465 0.842,-2.127c-1.086,-1.15 -1.785,-2.53 -2.115,-3.978c-2.983,1.58 -6.38,2.484 -9.992,2.484c-11.811,0 -21.386,-9.575 -21.386,-21.386c0,-11.811 9.575,-21.387 21.386,-21.387c11.811,0 21.387,9.575 21.387,21.387c0,2.539 -0.466,4.964 -1.277,7.223c1.983,0.132 3.837,0.93 5.29,2.3c0.528,-0.229 1.045,-0.435 1.535,-0.617c0.094,-4.52 3.84,-7.906 8.787,-7.906l1.718,0c2.902,0 5.368,1.254 6.884,3.246c0.387,-0.942 0.608,-1.949 0.608,-2.95l0,-2.592c0,-3.802 -3.111,-6.704 -6.913,-6.704l-4.667,0c-0.813,-3 -2.106,-6.545 -3.804,-9.404l3.266,-3.318c2.688,-2.688 2.688,-7.114 0,-9.802l-1.832,-1.846c-2.688,-2.688 -7.088,-2.695 -9.776,-0.007l-3.014,3.157c-2.88,-1.783 -6.26,-3.158 -9.26,-4.03l0,-4.337c0,-3.818 -3.386,-6.413 -7.204,-6.413l-2.592,0c-3.818,0 -7.204,2.595 -7.204,6.413l0,4.135c-3,0.805 -6.603,2.133 -9.586,3.904l-2.761,-2.834c-2.688,-2.688 -7.051,-2.688 -9.74,0l-1.815,1.833c-2.688,2.688 -2.679,7.088 0.009,9.776l2.732,2.831c-1.858,3.003 -3.259,6.942 -4.124,9.942l-3.802,0c-3.802,0 -6.913,2.902 -6.913,6.704l0,2.592c0,3.802 3.111,7.704 6.913,7.704l3.802,0c0.865,3 2.271,6.439 4.129,9.442l-2.727,2.529c-2.688,2.688 -2.688,6.989 0,9.677l1.833,1.783c2.688,2.688 7.088,2.664 9.776,-0.025l2.688,-2.846c2.983,1.772 6.586,3.088 9.586,3.893l0,4.135c0,3.817 3.386,7.412 7.204,7.412l2.592,0c2.022,0 3.916,-1.013 5.257,-2.529c-2.398,-1.668 -4.053,-4.515 -4.053,-7.612z"/>
  <path id="svg_2" fill="#F5CD0C" d="m111.566,81l-3.094,0c-0.539,-2 -1.396,-4.49 -2.522,-6.386l2.165,-2.275c1.782,-1.782 1.782,-4.754 0,-6.536l-1.215,-1.243c-1.782,-1.782 -4.698,-1.796 -6.481,-0.014l-2.14,2.087c-1.908,-1.181 -4.279,-2.097 -6.279,-2.675l0,-2.875c0,-2.531 -1.961,-4.083 -4.492,-4.083l-1.718,0c-2.531,0 -4.79,1.552 -4.79,4.083l0,2.741c-2,0.534 -4.37,1.414 -6.348,2.588l-1.827,-1.879c-1.782,-1.782 -4.673,-1.782 -6.455,0l-1.202,1.215c-1.782,1.782 -1.776,4.698 0.006,6.481l1.811,2.029c-1.231,1.99 -2.16,4.742 -2.733,6.742l-2.521,0c-2.52,0 -4.731,1.62 -4.731,4.141l0,1.718c0,2.521 2.211,5.141 4.731,5.141l2.521,0c0.573,2 1.505,4.252 2.737,6.243l-1.808,1.668c-1.782,1.782 -1.782,4.629 0,6.411l1.215,1.18c1.782,1.782 4.698,1.765 6.481,-0.017l1.775,-1.887c1.977,1.174 4.348,2.046 6.348,2.579l0,2.741c0,2.531 2.259,5.083 4.79,5.083l1.718,0c2.531,0 4.492,-2.552 4.492,-5.083l0,-2.875c2,-0.578 4.371,-1.487 6.281,-2.669l2.117,2.094c1.782,1.782 4.71,1.782 6.492,0l1.221,-1.215c1.782,-1.782 1.785,-4.698 0.003,-6.481l-2.164,-1.886c1.125,-1.895 1.984,-3.886 2.523,-5.886l3.094,0c2.52,0 4.434,-2.62 4.434,-5.141l0,-1.718c-0.001,-2.521 -1.914,-4.141 -4.435,-4.141zm-25.204,16.178c-6.173,0 -11.178,-5.004 -11.178,-11.178c0,-6.173 5.004,-11.178 11.178,-11.178s11.178,5.005 11.178,11.178c0,6.173 -5.004,11.178 -11.178,11.178z"/>
  <circle id="svg_3" r="13.5" fill="#F5CD0C" cy="51.681" cx="50.5"/>
 </g>
</svg>