<svg width="512" height="512" xmlns="http://www.w3.org/2000/svg">

 <g>
  <title>background</title>
  <rect fill="none" id="canvas_background" height="402" width="582" y="-1" x="-1"/>
 </g>
 <g>
  <title>Layer 1</title>
  <path id="svg_2" d="m216,320c-30.783,0 -66,29.596 -66,66c0,5.522 4.477,10 10,10s10,-4.478 10,-10c0,-15.597 9.637,-26.925 15.381,-32.289c9.056,-8.457 20.789,-13.711 30.619,-13.711c5.523,0 10,-4.478 10,-10s-4.477,-10 -10,-10z"/>
  <path id="svg_3" d="m329.028,153.314c3.781,14.25 11.249,22.586 12.088,23.49c3.759,4.047 10.085,4.281 14.133,0.523c4.047,-3.758 4.281,-10.085 0.523,-14.133c-0.208,-0.224 -20.562,-22.82 1.175,-57.932c15.305,-24.724 14.382,-45.501 10.913,-58.578c-3.781,-14.25 -11.249,-22.586 -12.088,-23.49c-3.759,-4.047 -10.086,-4.28 -14.133,-0.523c-4.047,3.758 -4.281,10.085 -0.523,14.133c0.208,0.224 20.562,22.82 -1.175,57.932c-15.304,24.724 -14.381,45.502 -10.913,58.578z"/>
  <path id="svg_4" d="m253.217,112.652c-10.756,9.929 -15.682,20.395 -14.641,31.106c1.487,15.3 14.683,23.836 16.183,24.759c4.682,2.882 10.85,1.449 13.757,-3.276c2.895,-4.703 1.428,-10.863 -3.275,-13.757c-0.063,-0.038 -6.224,-4.153 -6.759,-9.66c-0.502,-5.167 4.236,-10.724 8.301,-14.475c10.756,-9.929 15.682,-20.395 14.641,-31.106c-1.487,-15.3 -14.683,-23.836 -16.183,-24.759c-4.704,-2.896 -10.864,-1.428 -13.758,3.276c-2.895,4.703 -1.428,10.863 3.276,13.757c0.062,0.038 6.223,4.153 6.758,9.66c0.503,5.167 -4.236,10.724 -8.3,14.475z"/>
  <path id="svg_5" d="m152.14,153.314c3.781,14.25 11.249,22.586 12.087,23.49c3.759,4.046 10.085,4.281 14.133,0.523c4.047,-3.758 4.281,-10.085 0.523,-14.133c-0.208,-0.224 -20.562,-22.82 1.174,-57.932c15.305,-24.724 14.382,-45.501 10.913,-58.578c-3.781,-14.25 -11.249,-22.586 -12.087,-23.49c-3.759,-4.047 -10.086,-4.282 -14.133,-0.523s-4.281,10.085 -0.523,14.133c0.208,0.224 20.562,22.82 -1.174,57.932c-15.305,24.724 -14.382,45.502 -10.913,58.578z"/>
  <path id="svg_6" d="m490,480l-40,0l0,-40c0,-5.522 -4.478,-10 -10,-10l-14,0l0,-4c0,-88.174 -69.106,-160.5 -156,-165.69l0,-50.31c0,-5.523 -4.478,-10 -10,-10c-5.523,0 -10,4.477 -10,10l0,50.31c-86.894,5.19 -156,77.516 -156,165.69l0,4l-14,0c-5.523,0 -10,4.478 -10,10l0,40l-40,0c-5.523,0 -10,4.478 -10,10s4.477,10 10,10c22.748,0 441.383,0 460,0c5.522,0 10,-4.478 10,-10s-4.478,-10 -10,-10zm-84,-54l0,4l-292,0l0,-4c0,-37.204 17.23,-73.783 48.517,-103c28.833,-26.925 65.275,-43 97.483,-43c80.505,0 146,65.495 146,146zm-316,54l0,-30c8.827,0 332.278,0 340,0l0,30l-340,0z"/>
 </g>
</svg>