<svg width="64" height="64" xmlns="http://www.w3.org/2000/svg">
 <title/>

 <g>
  <title>background</title>
  <rect fill="none" id="canvas_background" height="402" width="582" y="-1" x="-1"/>
 </g>
 <g>
  <title>Layer 1</title>
  <path id="svg_1" fill="#222" d="m39.0508,53.9092l-25.16,0a8.51,8.51 0 0 1 -8.5,-8.5l0,-32.38a8.51,8.51 0 0 1 8.5,-8.5l30,0a8.51,8.51 0 0 1 8.5,8.5l0,26.6108a1.5,1.5 0 0 1 -3,0l0,-26.61a5.5068,5.5068 0 0 0 -5.5,-5.5l-30,0a5.5066,5.5066 0 0 0 -5.5,5.5l0,32.38a5.5066,5.5066 0 0 0 5.5,5.5l25.16,0a1.5,1.5 0 1 1 0,3l0,-0.0008z"/>
  <path id="svg_2" fill="#222" d="m41.36,17.5264l-24.9391,0a1.5,1.5 0 0 1 0,-3l24.9391,0a1.5,1.5 0 1 1 0,3z"/>
  <path id="svg_3" fill="#222" d="m41.36,26.3223l-24.9391,0a1.5,1.5 0 0 1 0,-3l24.9391,0a1.5,1.5 0 0 1 0,3z"/>
  <path id="svg_4" fill="#222" d="m41.36,35.1172l-24.9391,0a1.5,1.5 0 0 1 0,-3l24.9391,0a1.5,1.5 0 0 1 0,3z"/>
  <path id="svg_5" fill="#222" d="m34.3721,43.9121l-17.9512,0a1.5,1.5 0 1 1 0,-3l17.9512,0a1.5,1.5 0 0 1 0,3z"/>
  <path id="svg_6" fill="#222" d="m47.6621,59.4707a10.9478,10.9478 0 1 1 10.9473,-10.9482a10.96,10.96 0 0 1 -10.9473,10.9482zm0,-18.8955a7.9478,7.9478 0 1 0 7.9473,7.9473a7.9568,7.9568 0 0 0 -7.9473,-7.9473z"/>
  <path id="svg_7" fill="#222" d="m51.4814,50.0225l-3.8193,0a1.5,1.5 0 0 1 -1.5,-1.5l0,-4.39a1.5,1.5 0 0 1 3,0l0,2.89l2.3193,0a1.5,1.5 0 0 1 0,3z"/>
 </g>
</svg>