<svg xmlns="http://www.w3.org/2000/svg" viewBox="0 0 362.11 213.68">
  <title>restaurant main</title>
  <g id="Layer_2" data-name="Layer 2">
    <g id="OBJECTS">
      <g>
        <path d="M150.16,205.69c53.14,10.63,99.7-1.42,125.34-22.79,10.56-8.8,21.25-22.31,25.16-38,14.24-57-27.73-104.14-60.3-86.41-53.17,29-63,11.72-106.36-32.26C101.24-7-.82,36.2,53.3,134,75.31,173.76,112.17,198.1,150.16,205.69Z" fill="#c9ccea"/>
        <g>
          <ellipse cx="184.48" cy="208.51" rx="177.63" ry="5.17" fill="#c9ccea"/>
          <g>
            <g>
              <path d="M60.6,191.08S49.68,182,28.7,177.26C13.89,173.91,0,155.54,0,155.54s24.21-6.61,39.25,4.6S60.6,191.08,60.6,191.08Z" fill="#a4abd2"/>
              <path d="M60.78,191.36a.37.37,0,0,1-.43-.15,63.69,63.69,0,0,0-25-22.13,62.82,62.82,0,0,0-14.25-5.29.37.37,0,0,1,.15-.73,63.62,63.62,0,0,1,14.45,5.35A64.44,64.44,0,0,1,61,190.81a.37.37,0,0,1-.11.52Z" fill="#7485ac"/>
            </g>
            <g>
              <path d="M58.73,188.16S54.65,174.54,39.78,159c-10.5-11-11.92-34-11.92-34S51.69,132.92,58,150.58,58.73,188.16,58.73,188.16Z" fill="#a4abd2"/>
              <path d="M58.72,188.49a.37.37,0,0,1-.27-.37,63.69,63.69,0,0,0-8.64-32.28,62.81,62.81,0,0,0-9-12.28.37.37,0,0,1,.53-.53,63.62,63.62,0,0,1,9.08,12.44,64.44,64.44,0,0,1,8.73,32.66.37.37,0,0,1-.38.37Z" fill="#7485ac"/>
            </g>
          </g>
          <g>
            <g>
              <path d="M260.61,140.92s11.54-9.61,33.7-14.61c15.65-3.53,30.32-22.94,30.32-22.94s-25.58-7-41.47,4.86S260.61,140.92,260.61,140.92Z" fill="#a4abd2"/>
              <path d="M260.43,141.22a.39.39,0,0,0,.45-.16,67.29,67.29,0,0,1,26.45-23.38,66.37,66.37,0,0,1,15.06-5.59.39.39,0,1,0-.15-.77A67.21,67.21,0,0,0,287,117a68.08,68.08,0,0,0-26.76,23.66.39.39,0,0,0,.12.54Z" fill="#7485ac"/>
            </g>
            <g>
              <path d="M262.59,137.83s4.31-14.39,20-30.8C293.7,95.44,295.2,71.15,295.2,71.15s-25.18,8.32-31.87,27S262.59,137.83,262.59,137.83Z" fill="#a4abd2"/>
              <path d="M262.6,138.18a.39.39,0,0,0,.29-.39,67.29,67.29,0,0,1,9.12-34.1,66.35,66.35,0,0,1,9.46-13,.39.39,0,0,0-.56-.56,67.23,67.23,0,0,0-9.59,13.15,68.08,68.08,0,0,0-9.23,34.51.39.39,0,0,0,.4.39Z" fill="#7485ac"/>
            </g>
          </g>
          <rect x="54.22" y="73.33" width="211.76" height="119.73" fill="#5b6bc6"/>
          <g>
            <rect x="241" y="96.33" width="16.28" height="4.93" fill="#7487e0"/>
            <rect x="257.28" y="101.26" width="8.67" height="4.93" fill="#7487e0"/>
          </g>
          <g>
            <rect x="65.22" y="175.37" width="18.32" height="5.55" fill="#7487e0"/>
            <rect x="83.54" y="180.92" width="18.32" height="5.55" fill="#7487e0"/>
          </g>
          <g>
            <rect x="225.41" y="173.98" width="18.32" height="5.55" fill="#7487e0"/>
            <rect x="243.73" y="179.53" width="18.32" height="5.55" fill="#7487e0"/>
          </g>
          <g>
            <rect x="54.22" y="101.24" width="6.55" height="5.55" fill="#7487e0"/>
            <rect x="60.77" y="106.79" width="18.32" height="5.55" fill="#7487e0"/>
          </g>
          <polygon points="265.99 87.7 265.99 91.59 54.22 98.46 54.22 87.57 265.99 87.7" fill="#273a8c"/>
          <g>
            <rect x="135.52" y="104.13" width="49.16" height="88.94" fill="#122052"/>
            <rect x="140.11" y="162.19" width="40.21" height="24.17" fill="#263c73"/>
            <circle cx="177.53" cy="154.1" r="3.39" fill="#e7a35f"/>
            <rect x="139.89" y="108.44" width="40.42" height="37.55" fill="#c9ccea"/>
            <polygon points="163.58 108.44 139.89 132.13 139.89 116.78 148.23 108.44 163.58 108.44" fill="#e9e9f9"/>
            <polygon points="180.31 133.64 180.31 145.99 167.97 145.99 180.31 133.64" fill="#e9e9f9"/>
            <polygon points="180.31 108.44 180.31 115.69 150.01 145.99 142.71 145.99 180.26 108.44 180.31 108.44" fill="#e9e9f9"/>
          </g>
          <rect x="49.71" y="193.04" width="220.78" height="7.2" rx="2.07" ry="2.07" fill="#263c73"/>
          <rect x="35.49" y="200.24" width="249.23" height="8.12" rx="2.34" ry="2.34" fill="#122052"/>
          <g>
            <path d="M246.19,29.81H75.41C70,43.83,60.08,61.08,43.77,64h0v24.3H277.84V64C261.52,61.09,251.63,43.84,246.19,29.81Z" fill="#fff"/>
            <rect x="43.77" y="64.05" width="234.06" height="24.3" fill="#c9ccea"/>
            <path d="M75.42,29.81C70,43.84,60.08,61.09,43.77,64v24.3H73.49V64c16.31-3,25-20.21,29.36-34.24Z" fill="#dc7160"/>
            <path d="M246.2,29.81H217.83c4.82,14,14,31.28,30.29,34.24v24.3h29.72V64C261.53,61.09,251.64,43.84,246.2,29.81Z" fill="#dc7160"/>
            <path d="M128.13,29.81c-2.4,12.11-7.21,26.92-16.75,34.24l.7,24.3h27.85V64.21A149.71,149.71,0,0,0,148,29.81Z" fill="#dc7160"/>
            <path d="M190.15,29.81H170.28a149.71,149.71,0,0,0,8.07,34.4V88.34H206.2l.7-24.3C197.36,56.72,192.55,41.92,190.15,29.81Z" fill="#dc7160"/>
            <rect x="43.77" y="64.05" width="29.72" height="24.3" fill="#be4c3e"/>
            <polygon points="277.85 64.05 277.85 88.34 248.12 88.34 248.12 64.05 277.84 64.05 277.85 64.05" fill="#be4c3e"/>
            <path d="M140,64l-.07.17V88.34H112.08l-.7-24.3Z" fill="#be4c3e"/>
            <path d="M206.9,64l-.7,24.3H178.35V64.21l-.07-.17Z" fill="#be4c3e"/>
          </g>
        </g>
        <g>
          <path d="M119.68,166H73.44V129.86a23.12,23.12,0,0,1,23.12-23.12h0a23.12,23.12,0,0,1,23.12,23.12Z" fill="#122052"/>
          <path d="M115.5,129.86v32H77.62v-32a18.94,18.94,0,1,1,37.88,0Z" fill="#c9ccea"/>
          <path d="M102.25,111.79,77.62,136.42v-6.56a18.94,18.94,0,0,1,24.63-18.07Z" fill="#e9e9f9"/>
          <polygon points="115.5 146.7 115.5 161.86 100.34 161.86 115.5 146.7" fill="#e9e9f9"/>
          <path d="M115.37,127.6,81.09,161.86H77.62V155l35.06-35.06A18.81,18.81,0,0,1,115.37,127.6Z" fill="#e9e9f9"/>
          <rect x="77.45" y="148.62" width="38.23" height="3.95" fill="#122052"/>
        </g>
        <g>
          <path d="M224.95,106.73h0a23.12,23.12,0,0,1,23.12,23.12V166a0,0,0,0,1,0,0H201.83a0,0,0,0,1,0,0V129.86a23.12,23.12,0,0,1,23.12-23.12Z" fill="#122052"/>
          <path d="M243.89,129.86v32H206v-32a18.94,18.94,0,1,1,37.88,0Z" fill="#c9ccea"/>
          <path d="M230.64,111.79,206,136.42v-6.56a18.94,18.94,0,0,1,24.63-18.07Z" fill="#e9e9f9"/>
          <polygon points="243.89 146.7 243.89 161.86 228.73 161.86 243.89 146.7" fill="#e9e9f9"/>
          <path d="M243.76,127.6l-34.28,34.26H206V155l35.06-35.06A18.81,18.81,0,0,1,243.76,127.6Z" fill="#e9e9f9"/>
          <rect x="205.97" y="148.62" width="37.99" height="3.95" fill="#122052"/>
        </g>
        <g>
          <path d="M284.6,191.3l5.1-65a2.27,2.27,0,0,1,2.26-2.09h35.69a2.27,2.27,0,0,1,2.26,2.09l5.1,65a2.27,2.27,0,0,1-2.26,2.44H286.86A2.27,2.27,0,0,1,284.6,191.3Z" fill="#263c73"/>
          <path d="M329.14,190.42H290.45a2.27,2.27,0,0,1-2.26-2.44l4.57-58.39A2.27,2.27,0,0,1,295,127.5h29.54a2.27,2.27,0,0,1,2.26,2.09L331.4,188A2.27,2.27,0,0,1,329.14,190.42Z" fill="#5b6bc6"/>
          <g>
            <g>
              <path d="M318.47,146.12h0a.56.56,0,0,1-.56.6H294.35a.6.6,0,0,1-.64-.56.54.54,0,0,1,.19-.4.68.68,0,0,1,.45-.16h23.56A.56.56,0,0,1,318.47,146.12Z" fill="#263c73"/>
              <path d="M325.71,146.16a.54.54,0,0,1-.19.4.68.68,0,0,1-.45.16h-4.69a.56.56,0,0,1-.56-.52h0a.56.56,0,0,1,.56-.61h4.69A.6.6,0,0,1,325.71,146.16Z" fill="#263c73"/>
              <path d="M318.8,150.89h0a.56.56,0,0,1-.56.6H294.11a.61.61,0,0,1-.65-.56.53.53,0,0,1,.19-.4.69.69,0,0,1,.46-.16h24.13A.56.56,0,0,1,318.8,150.89Z" fill="#263c73"/>
              <path d="M326.08,150.93a.53.53,0,0,1-.19.4.7.7,0,0,1-.46.16h-4.69a.56.56,0,0,1-.56-.52h0a.56.56,0,0,1,.56-.61h4.69A.61.61,0,0,1,326.08,150.93Z" fill="#263c73"/>
              <path d="M319.14,155.66h0a.56.56,0,0,1-.56.6h-24.7a.62.62,0,0,1-.66-.56.53.53,0,0,1,.19-.4.72.72,0,0,1,.47-.16h24.7A.56.56,0,0,1,319.14,155.66Z" fill="#263c73"/>
              <path d="M326.45,155.7a.53.53,0,0,1-.19.4.72.72,0,0,1-.47.16H321.1a.56.56,0,0,1-.56-.52h0a.56.56,0,0,1,.56-.61h4.69A.62.62,0,0,1,326.45,155.7Z" fill="#263c73"/>
              <path d="M319.48,160.43h0a.56.56,0,0,1-.56.6H293.65a.63.63,0,0,1-.67-.56.53.53,0,0,1,.2-.4.74.74,0,0,1,.48-.16h25.26A.56.56,0,0,1,319.48,160.43Z" fill="#263c73"/>
              <path d="M326.83,160.47a.53.53,0,0,1-.2.4.74.74,0,0,1-.47.16h-4.69a.56.56,0,0,1-.56-.52h0a.56.56,0,0,1,.56-.61h4.69A.62.62,0,0,1,326.83,160.47Z" fill="#263c73"/>
              <path d="M319.81,165.2h0a.56.56,0,0,1-.56.6H293.42a.63.63,0,0,1-.68-.56.51.51,0,0,1,.2-.4.75.75,0,0,1,.48-.17h25.83A.56.56,0,0,1,319.81,165.2Z" fill="#263c73"/>
              <path d="M327.2,165.24a.51.51,0,0,1-.2.4.76.76,0,0,1-.48.16h-4.69a.56.56,0,0,1-.56-.52h0a.56.56,0,0,1,.56-.61h4.69A.63.63,0,0,1,327.2,165.24Z" fill="#263c73"/>
            </g>
            <path d="M316.94,135a1.3,1.3,0,0,0-1-.51H314V134a.6.6,0,0,0,.54-.59v-.13a.6.6,0,0,0-.6-.6h-9a.6.6,0,0,0-.6.6v.13a.6.6,0,0,0,.54.6v5.78a1.55,1.55,0,0,0,1.55,1.55h6a1.55,1.55,0,0,0,1.55-1.55v-.48a4,4,0,0,0,3.18-3.14A1.3,1.3,0,0,0,316.94,135Zm-.63.91a3.12,3.12,0,0,1-2.32,2.44v-3h1.91a.42.42,0,0,1,.41.52Z" fill="#263c73"/>
          </g>
          <g>
            <g>
              <path d="M292.39,193.74v13.69a.7.7,0,0,1-.7.7h-2.81a.7.7,0,0,1-.7-.7V193.74Z" fill="#263c73"/>
              <rect x="288.19" y="193.74" width="4.21" height="2.11" fill="#122052"/>
            </g>
            <g>
              <path d="M331.41,193.74v13.69a.7.7,0,0,1-.7.7H327.9a.69.69,0,0,1-.7-.7V193.74Z" fill="#263c73"/>
              <rect x="327.2" y="193.74" width="4.21" height="2.11" fill="#122052"/>
            </g>
          </g>
        </g>
        <g>
          <path d="M322.68,28.17a26.26,26.26,0,0,1-41.56,19.36l-13.47,4,4.86-14.63a26.25,26.25,0,1,1,50.17-8.74Z" fill="#fff"/>
          <g>
            <path d="M284.18,28.7a1.51,1.51,0,0,1,1.59.31,11.49,11.49,0,0,0,3-1.91c0-.14,0-.29,0-.43a8,8,0,0,1,.61-3.3c.07-.17.15-.34.23-.5a11.68,11.68,0,0,0-1.73-2.57,1.51,1.51,0,1,1,.72-.88,13.16,13.16,0,0,0,2.35,1.52,8,8,0,0,1,4.22-2.37,12.19,12.19,0,0,0,.55-3.18,1.51,1.51,0,1,1,1.14,0,11.7,11.7,0,0,0,.78,3,8,8,0,0,1,4,1.57,12.82,12.82,0,0,0,2.31-1.84,1.51,1.51,0,1,1,.81.8,11.68,11.68,0,0,0-1.45,2.73,8,8,0,0,1,1.55,4.55c0,.17,0,.35,0,.52a13.78,13.78,0,0,0,2.44.58,1.51,1.51,0,1,1-.15,1.13,10.92,10.92,0,0,0-2.64.37l-.1.3-.08.22a8.08,8.08,0,0,1-2.47,3.37,11.46,11.46,0,0,0,.89,2.84,1.51,1.51,0,1,1-.95.63,12.67,12.67,0,0,0-2-2.28,8.1,8.1,0,0,1-4.49.45,7.9,7.9,0,0,1-1.08-.28l-.41-.15a10.4,10.4,0,0,0-1.62,1.73,1.51,1.51,0,1,1-1-.54,14.15,14.15,0,0,0,.9-2.13,8.08,8.08,0,0,1-2.72-3.38,11.74,11.74,0,0,0-3.11.42,1.51,1.51,0,1,1-2.06-1.35Z" fill="#122052"/>
            <path d="M277.77,26.25a19.17,19.17,0,1,1,19.17,19.17A19.19,19.19,0,0,1,277.77,26.25Zm3.93,0A15.24,15.24,0,1,0,296.94,11,15.26,15.26,0,0,0,281.7,26.25Z" fill="#dc7160"/>
            <rect x="294.97" y="8.29" width="3.93" height="33.43" transform="translate(69.29 217.29) rotate(-45)" fill="#dc7160"/>
          </g>
        </g>
        <g>
          <g>
            <path d="M316.72,69.81a5.45,5.45,0,1,1,5.45,5.45A5.46,5.46,0,0,1,316.72,69.81Zm1.52,0a3.93,3.93,0,1,0,3.93-3.93A3.94,3.94,0,0,0,318.24,69.81Z" fill="#dc7160"/>
            <g>
              <path d="M311.68,84.6a.7.7,0,0,0,.7-.7V79.65a.7.7,0,0,0-1.4,0V83.9A.7.7,0,0,0,311.68,84.6Z" fill="#5b6bc6"/>
              <path d="M313.07,86h4.25a.7.7,0,0,0,0-1.4h-4.25a.7.7,0,0,0,0,1.4Z" fill="#5b6bc6"/>
              <path d="M306,86h4.25a.7.7,0,1,0,0-1.4H306a.7.7,0,1,0,0,1.4Z" fill="#5b6bc6"/>
              <path d="M311.68,91.35a.7.7,0,0,0,.7-.7V86.39a.7.7,0,1,0-1.4,0v4.25A.7.7,0,0,0,311.68,91.35Z" fill="#5b6bc6"/>
            </g>
          </g>
          <g>
            <path d="M37.41,35.26a5.45,5.45,0,1,1,5.45,5.45A5.46,5.46,0,0,1,37.41,35.26Zm1.52,0a3.93,3.93,0,1,0,3.93-3.93A3.94,3.94,0,0,0,38.93,35.26Z" fill="#5b6bc6"/>
            <g>
              <path d="M32.06,52a.7.7,0,0,0,.7-.7V47a.7.7,0,1,0-1.4,0v4.25A.7.7,0,0,0,32.06,52Z" fill="#dc7160"/>
              <path d="M33.45,53.34H37.7a.7.7,0,0,0,0-1.4H33.45a.7.7,0,0,0,0,1.4Z" fill="#dc7160"/>
              <path d="M26.41,53.34h4.25a.7.7,0,0,0,0-1.4H26.41a.7.7,0,1,0,0,1.4Z" fill="#dc7160"/>
              <path d="M32.06,58.7a.7.7,0,0,0,.7-.7V53.74a.7.7,0,0,0-1.4,0V58A.7.7,0,0,0,32.06,58.7Z" fill="#dc7160"/>
            </g>
          </g>
        </g>
      </g>
    </g>
  </g>
</svg>
