<?xml version="1.0" ?><!DOCTYPE svg  PUBLIC '-//W3C//DTD SVG 1.1//EN'  'http://www.w3.org/Graphics/SVG/1.1/DTD/svg11.dtd'><svg id="Calque_1" style="enable-background:new 0 0 100 100;" version="1.1" viewBox="0 0 100 100" xml:space="preserve" xmlns="http://www.w3.org/2000/svg" xmlns:xlink="http://www.w3.org/1999/xlink"><g><path d="M94.8,76.6h-7.1V64c3.7-1,6.6-5.8,6.6-11.6c0-6.5-3.6-11.8-8-11.8c-4.4,0-8,5.3-8,11.8c0,5.8,2.8,10.6,6.6,11.6v12.6H72.4    V20.9c0-1.6-1.3-2.9-2.9-2.9h-39c-1.6,0-2.9,1.3-2.9,2.9v55.7H15.2V64c3.7-1,6.6-5.8,6.6-11.6c0-6.5-3.6-11.8-8-11.8    s-8,5.3-8,11.8c0,5.8,2.8,10.6,6.6,11.6v12.6H5.2c-1.5,0-2.7,1.2-2.7,2.7c0,1.5,1.2,2.7,2.7,2.7h89.5c1.5,0,2.7-1.2,2.7-2.7    C97.5,77.8,96.3,76.6,94.8,76.6z M38.1,51.8L38.1,51.8c-1.1-1.1-1.1-2.9,0.1-4l4.6-4.1l0.7,0.8c0.9,0.9,2.1,1.5,3.4,1.5    c0.1,0,0.1,0,0.2,0L42,51.7C41,52.9,39.2,52.9,38.1,51.8z M49.1,74.7c0,0.4-0.3,0.7-0.7,0.7h-6.8c-0.4,0-0.7-0.3-0.7-0.7V63.4    c0-0.4,0.3-0.7,0.7-0.7h6.8c0.4,0,0.7,0.3,0.7,0.7V74.7z M59.2,74.7c0,0.4-0.3,0.7-0.7,0.7h-6.8c-0.4,0-0.7-0.3-0.7-0.7V63.4    c0-0.4,0.3-0.7,0.7-0.7h6.8c0.4,0,0.7,0.3,0.7,0.7V74.7z M60,51.8c-1.2,1.2-3.2,1-4.2-0.3l-6.6-9l-0.7,0.7    C47.6,44,46.1,44,45.2,43l-5.1-5.5C37.7,35,37,31.2,38.2,28c0.2-0.6,1.1-0.8,1.5-0.3L60,47.8C61,48.9,61,50.7,60,51.8z M62.4,33.7    l-5.1,5.1c-0.4,0.4-1,0.6-1.6,0.6c-0.5,0-1-0.2-1.4-0.5L51,35.6c-0.8-0.9-0.7-2.2,0.1-3l5.1-5.1c0.4-0.4,1-0.4,1.3,0    c0.4,0.4,0.4,1,0,1.3l-4.3,4.3c-0.2,0.2-0.2,0.5,0,0.7l0.4,0.4c0.2,0.2,0.5,0.2,0.7,0l4.3-4.3c0.4-0.4,1-0.4,1.3,0    c0.4,0.4,0.4,1,0,1.3l-4.3,4.3c-0.2,0.2-0.2,0.5,0,0.7l0.4,0.4c0.2,0.2,0.5,0.2,0.7,0l4.3-4.3c0.4-0.4,1-0.4,1.3,0    C62.8,32.7,62.8,33.3,62.4,33.7z"/></g></svg>