<?xml version="1.0" encoding="utf-8"?>
<!-- Generator: Adobe Illustrator 21.0.0, SVG Export Plug-In . SVG Version: 6.00 Build 0)  -->
<svg version="1.1" id="Layer_1" xmlns="http://www.w3.org/2000/svg" xmlns:xlink="http://www.w3.org/1999/xlink" x="0px" y="0px"
	 viewBox="0 0 250 250" style="enable-background:new 0 0 250 250;" xml:space="preserve">
<style type="text/css">
	.st0{fill:#FFFFFF;}
	.st1{opacity:0.8;}
	.st2{fill:#C9CACA;}
	.st3{fill:#E2E2E2;stroke:#191F23;stroke-width:0.5;stroke-miterlimit:10;}
	.st4{fill:#B0B0B0;}
	.st5{fill:#A4A4A4;stroke:#191F23;stroke-width:0.5;stroke-miterlimit:10;}
	.st6{fill:#F2F2F2;stroke:#191F23;stroke-width:0.3;stroke-miterlimit:10;}
	.st7{fill:#C4C4C4;}
	.st8{fill:#4E4E4E;stroke:#191F23;stroke-width:0.5;stroke-miterlimit:10;}
	.st9{fill:#9C8578;}
	.st10{fill:#F6F7F7;}
	.st11{fill:#323232;stroke:#191F23;stroke-width:0.5;stroke-miterlimit:10;}
	.st12{opacity:0.64;fill:#B0B0B0;enable-background:new    ;}
	.st13{opacity:0.64;fill:#7E7D7D;enable-background:new    ;}
	.st14{fill:#A4A4A3;stroke:#191F23;stroke-width:0.5;stroke-miterlimit:10;}
	.st15{fill:#C9CACA;stroke:#191F23;stroke-width:0.5;stroke-miterlimit:10;}
	.st16{fill:#3A3B3A;}
	.st17{fill:#FFFFFF;stroke:#191F23;stroke-width:0.6803;stroke-miterlimit:10;}
	.st18{fill:none;stroke:#191F23;stroke-width:0.6803;stroke-miterlimit:10;}
	.st19{fill:#FFFFFF;stroke:#171E22;stroke-width:0.75;stroke-miterlimit:10;}
	.st20{fill:#171E22;}
	.st21{fill:none;stroke:#171E22;stroke-width:0.75;stroke-miterlimit:10;}
	.st22{fill:#DDDDDD;stroke:#191F23;stroke-width:0.75;stroke-miterlimit:10;}
	.st23{fill:none;stroke:#191F23;stroke-width:0.75;stroke-miterlimit:10;}
	.st24{fill:#FFFFFF;stroke:#191F23;stroke-width:0.75;stroke-miterlimit:10;}
	.st25{fill:#191F23;}
	.st26{fill:#DDDDDD;stroke:#171E22;stroke-width:0.75;stroke-miterlimit:10;}
</style>
<g id="Layer_1_2_">
	<g id="Layer_1_1_">
		<g id="Слой_1">
			<g id="Слой_1_2_">
				<g id="Слой_1_1_">
					<rect x="0" y="0" class="st0" width="250" height="250"/>
				</g>
			</g>
		</g>
	</g>
</g>
<g>
	<g class="st1">
		<g>
			<polygon class="st2" points="20.9,160 250,160 250,68.6 19.4,68.6 			"/>
			<rect x="93.9" y="152.3" class="st3" width="90.3" height="3.8"/>
			<polygon class="st4" points="105.7,68.1 105.7,69.7 172.3,77.5 172.3,68.1 			"/>
			<rect x="20.5" y="7.6" class="st3" width="229.5" height="51.2"/>
			<polygon class="st4" points="250,16.2 20.6,14.1 20.6,3.5 250,3.5 			"/>
			<polygon class="st3" points="20.3,159.6 93.9,159.6 93.9,68.2 19.5,68.2 			"/>
			<rect x="184.2" y="68.6" class="st3" width="65.8" height="91.4"/>
			<polygon class="st5" points="184.2,155.9 169.5,152.3 169.5,68.4 184.2,68.4 			"/>
			<polygon class="st5" points="108.8,152.3 93.9,155.9 93.9,68.4 108.6,68.4 			"/>
			<g>
				<polygon class="st6" points="16.3,12.1 250,10.9 250,3.3 16.3,3.3 				"/>
				<rect x="16.4" y="3.3" class="st7" width="233.6" height="3.4"/>
				<rect x="10.4" y="0.9" class="st6" width="239.6" height="4.5"/>
			</g>
			<polygon class="st8" points="15.7,165 250,165 250,156.1 15.7,155.4 			"/>
			<g>
				<polygon class="st8" points="112.5,152.3 162.9,152.3 162.9,89.2 113.8,90.4 				"/>
				<rect x="139.1" y="93.8" class="st9" width="20.3" height="58.5"/>
				<rect x="139.1" y="93.8" class="st3" width="20.3" height="58.5"/>
				<rect x="116.7" y="93.8" class="st3" width="20.3" height="58.5"/>
				<path class="st10" d="M129.6,100.4l4.1-0.1l-0.3,49.9h-15v-38.4C118.4,105.6,123.4,100.5,129.6,100.4z"/>
				<path class="st10" d="M144.1,100.3l-2.2-0.9l-0.1,50.8h15.4v-36.5C157.2,106.4,151.4,100.5,144.1,100.3z"/>
			</g>
			<rect x="32.2" y="23.1" class="st4" width="11.2" height="4.3"/>
			<rect x="32.2" y="34.3" class="st4" width="11.2" height="4.3"/>
			<rect x="31.2" y="143" class="st4" width="11.2" height="4.3"/>
			<rect x="37.1" y="148.6" class="st4" width="11.2" height="4.3"/>
			<rect x="236.9" y="43.9" class="st4" width="11.2" height="4.3"/>
			<rect x="228.6" y="49.6" class="st4" width="10.5" height="4.3"/>
			<rect x="37" y="28.5" class="st4" width="11.2" height="4.3"/>
			<g>
				<polygon class="st4" points="208.5,139.5 238.2,142.8 237.5,138.9 				"/>
				<g>
					<rect x="208.8" y="95.7" class="st8" width="28.8" height="40.9"/>
					<rect x="210.9" y="98" class="st11" width="24.2" height="36.4"/>
					<rect x="212.1" y="99.3" class="st3" width="22.2" height="33.8"/>
					<path class="st10" d="M213,133.2h17.3l0.3-23.7c0-3.1-2.3-5.7-5.4-5.9l-12.3-1L213,133.2L213,133.2z"/>
					<rect x="211.9" y="115.8" class="st11" width="22.9" height="1.5"/>
					<rect x="206.2" y="136.3" class="st8" width="33.8" height="3.4"/>
				</g>
				<path class="st2" d="M244.7,96.3h-43.8C200.9,96.3,222.8,76.4,244.7,96.3z"/>
			</g>
			<g>
				<polygon class="st4" points="41.7,139.5 71.5,142.8 70.8,138.9 				"/>
				<g>
					<rect x="42" y="95.7" class="st8" width="28.8" height="40.9"/>
					<rect x="44.2" y="98" class="st11" width="24.2" height="36.4"/>
					<rect x="45.3" y="99.3" class="st3" width="22.2" height="33.8"/>
					<path class="st10" d="M46.3,133.2h17.3l0.3-22.5c0.1-3.8-2.8-7-6.6-7.3l-11-0.9V133.2z"/>
					<rect x="45.1" y="115.8" class="st11" width="22.9" height="1.5"/>
					<rect x="39.5" y="136.3" class="st8" width="33.8" height="3.4"/>
				</g>
				<path class="st2" d="M78,96.3H34.2C34.2,96.3,56.1,76.4,78,96.3z"/>
			</g>
			<g>
				<polygon class="st12" points="184.3,64.2 250,64.2 250,74.9 184.3,72.7 				"/>
				<polygon class="st12" points="93.8,64.2 93.8,72 19.6,73.3 19.6,64.2 				"/>
			</g>
			<polygon class="st13" points="94,64.2 184.1,64.2 184.1,72.7 140.7,71.1 94,72 			"/>
			<g>
				<polygon class="st6" points="15.4,68.2 250,69.1 250,60.6 15.4,60.6 				"/>
				<polyline class="st7" points="250,63.8 250,60.6 15.5,60.6 15.5,63.8 				"/>
				<polygon class="st6" points="9.5,62.8 250,62.8 250,58.1 9.5,57.2 				"/>
			</g>
			<g>
				<g>
					<rect x="87.3" y="164.8" class="st14" width="103.9" height="4.4"/>
				</g>
				<g>
					<rect x="93.9" y="155.5" class="st14" width="90.3" height="4.3"/>
					<path class="st15" d="M87.3,164.6l103.7,0.1c0.1,0,0.1-0.1,0-0.1l-6.9-4.7H93.9L87.3,164.6L87.3,164.6z"/>
				</g>
			</g>
		</g>
		<g>
			<g>
				<path class="st16" d="M74.9,31.7c1.8-0.3,3.2-0.4,4-0.4c1.3,0,2.4,0.3,3.1,0.9c0.8,0.6,1.2,1.4,1.2,2.3c0,0.9-0.4,1.8-1.2,2.6
					c-0.8,0.8-1.9,1.5-3.1,1.9c-0.2,0.1-0.2,0.1-0.2,0.2c0,0.1,0.6,0.7,1.9,1.6c1.3,1,2.5,1.8,3.5,2.5c0.3,0.2,0.5,0.4,0.5,0.7
					c0,0.2-0.1,0.4-0.3,0.6c-0.2,0.2-0.4,0.3-0.6,0.3c-0.4,0-1-0.3-1.8-0.9c-0.8-0.6-1.6-1.3-2.5-2c-1.9-1.6-2.9-2.4-3.1-2.4
					c-0.4,0-0.7-0.1-0.9-0.2c-0.2-0.1-0.3-0.3-0.3-0.6c0-0.2,0.1-0.4,0.3-0.6c0.2-0.2,0.5-0.3,0.8-0.3c0.1,0,0.3,0,0.5,0
					s0.4,0.1,0.5,0.1c0.5,0,1.3-0.4,2.5-1.1s1.8-1.6,1.8-2.6c0-0.5-0.3-1-0.8-1.4s-1.2-0.6-2.1-0.6c-0.6,0-1.2,0-1.9,0.1
					s-1,0.2-1.2,0.2s-0.3,0.2-0.4,0.5s-0.3,1.1-0.5,2.5s-0.4,2.7-0.6,3.9c-0.1,1.2-0.2,2.1-0.2,2.7c0,0.4,0,0.8,0.1,1.2
					C74,43.7,74,44,74,44.2s-0.1,0.4-0.3,0.6s-0.4,0.3-0.6,0.3c-0.7,0-1-0.5-1-1.6c0-2.5,0.4-5.8,1.3-9.9c0-0.2,0.1-0.3,0.1-0.4
					s0-0.1-0.1-0.2c-0.2-0.4-0.4-0.7-0.4-0.8c0-0.2,0.1-0.4,0.3-0.6c0.2-0.2,0.4-0.3,0.6-0.3L74.9,31.7z"/>
				<path class="st16" d="M96.7,32.9c0,0-0.2,0-0.5,0s-0.6,0-1,0.1c-0.3,0.1-0.6,0.1-0.9,0.1c-0.2,0-0.4,0-0.6,0.1
					c-0.3,0-0.8,0.1-1.6,0.1c-1.2,0-1.9,0.1-2.2,0.2c-0.3,0.1-0.5,0.4-0.5,0.9c0,0.3-0.1,0.7-0.2,1.1c-0.3,1.2-0.5,2-0.5,2.4h0.1
					c0.3,0,0.9,0,1.8-0.1s1.5-0.2,2-0.3c0.9-0.2,1.6-0.3,2.1-0.3c0.8,0,1.2,0.2,1.2,0.6c0,0.5-0.3,0.8-0.8,0.9
					c-0.5,0.1-1.6,0.3-3.2,0.4c-2,0.2-3.1,0.4-3.2,0.6s-0.3,0.7-0.4,1.7s-0.3,1.7-0.3,2v0.1c0,0.3,0.2,0.5,0.6,0.5h0.2
					c0.3,0,0.7,0,1.2-0.1l1.8-0.3c0.7-0.1,1.3-0.2,2-0.3c0.8-0.2,1.4-0.3,1.6-0.3s0.4,0.1,0.6,0.2c0.2,0.1,0.3,0.4,0.3,0.7
					c0,0.2-0.1,0.4-0.2,0.5c-0.6,0.3-1.4,0.4-2.4,0.5c-0.9,0-2.2,0.2-4,0.4c-0.9,0.1-1.5,0.2-1.8,0.2c-0.7,0-1.2-0.1-1.4-0.2
					c-0.2-0.1-0.3-0.4-0.3-0.8v-0.3l0,0c0-0.1,0.1-0.3,0.2-0.6c0.2-0.4,0.3-1.3,0.5-2.5s0.3-2.2,0.4-2.9c0-0.2,0.1-0.5,0.1-0.9
					c0.3-1.5,0.4-2.7,0.4-3.5c0,0-0.1-0.2-0.2-0.3l-0.1-0.1c0-0.1-0.1-0.3-0.1-0.4c0-0.1-0.1-0.2-0.1-0.3v-0.1
					c0-0.1,0.1-0.3,0.3-0.4s0.3-0.2,0.5-0.2l0,0c0.3,0,0.6,0,0.9,0.1l0,0c0.1,0,0.8-0.1,2.1-0.2s2.7-0.3,4.4-0.6c0.2,0,0.3,0,0.3,0
					h0.1c0.5,0,0.8,0,1,0.1s0.3,0.4,0.3,0.7c0,0.2-0.1,0.3-0.2,0.5C96.9,32.8,96.8,32.8,96.7,32.9z"/>
				<path class="st16" d="M108.1,34.5c0-0.8-0.2-1.3-0.6-1.5s-1-0.3-1.6-0.3c-1.3,0-2.5,0.3-3.6,0.8s-1.6,1.1-1.6,1.9
					c0,0.5,0.2,1,0.7,1.4s1.5,0.8,3.1,1.3c1.5,0.4,2.6,0.9,3.3,1.4c0.7,0.5,1,1,1,1.7s-0.5,1.4-1.4,2.2s-2,1.4-3.3,1.8
					s-2.4,0.6-3.3,0.6c-0.8,0-1.3-0.1-1.7-0.3c-0.4-0.2-0.6-0.4-0.6-0.7c0-0.2,0.1-0.4,0.2-0.7s0.2-0.4,0.3-0.4c0.1,0,0.3,0,0.4,0.1
					c0.7,0.2,1.3,0.4,2,0.4c1.2,0,2.4-0.3,3.7-1c1.3-0.7,2-1.3,2-1.9c0-0.3-0.2-0.5-0.6-0.7s-1.4-0.6-3-1.1c-2-0.6-3.3-1.3-3.7-1.9
					c-0.5-0.6-0.7-1.2-0.7-1.9c0-1.3,0.7-2.3,2.2-3.1s3-1.2,4.7-1.2c1.1,0,1.9,0.2,2.5,0.5c0.6,0.4,0.9,0.8,0.9,1.2
					c0,0.2-0.1,0.5-0.2,0.9C109,34.3,108.6,34.5,108.1,34.5z"/>
				<path class="st16" d="M110.3,33.5c-0.1-0.1-0.1-0.3-0.1-0.5c0-0.3,0.1-0.5,0.3-0.6c0.2-0.1,0.8-0.2,1.8-0.2
					c1.2,0,2.3-0.1,3.3-0.1c1-0.1,2.5-0.3,4.5-0.5c0.8-0.1,1.5-0.2,2.2-0.2c0.4,0,0.7,0,1,0.1s0.5,0.1,0.7,0.1
					c0.1,0,0.2,0.2,0.3,0.3c0.1,0.2,0.1,0.3,0.1,0.4c0,0.4-0.2,0.7-0.5,0.7c-0.2,0-0.5,0-0.8-0.1c-0.4,0-0.8,0-1.5,0
					c-0.6,0-1.4,0-2.3,0.1s-1.4,0.2-1.5,0.4s-0.3,1.4-0.5,3.6c-0.2,2.2-0.3,3.9-0.3,4.9c0,0.5,0.1,1.1,0.2,1.7c0,0.1,0,0.2,0,0.2
					c0,0.3-0.1,0.5-0.2,0.7s-0.3,0.3-0.5,0.3c-0.3,0-0.6-0.2-0.8-0.5c-0.2-0.3-0.3-1.2-0.3-2.6c0-1.4,0.3-4,0.8-7.9
					c0-0.2,0-0.3,0-0.3c0-0.2-0.1-0.3-0.3-0.3c-0.4,0-1.1,0-2.1,0.1s-1.8,0.1-2.2,0.1C110.9,33.9,110.5,33.8,110.3,33.5z"/>
				<path class="st16" d="M130.9,31.5c0.1,0,0.1,0.2,0.1,0.5s0,0.5-0.1,0.6L131,33c0.2,0.7,0.4,1.3,0.6,1.8c0.2,0.6,0.5,1.3,0.7,2
					c0.6,1.7,1.1,3.1,1.7,4.3c0.6,1.2,1.1,2,1.6,2.5c0.3,0.3,0.5,0.5,0.6,0.6s0.1,0.3,0.1,0.4c0,0.3-0.1,0.5-0.3,0.7
					s-0.4,0.3-0.7,0.3c-0.8,0-1.8-1.2-2.9-3.7c-0.5-1-0.7-1.5-0.8-1.5c-0.3,0-0.9,0.1-1.9,0.3s-1.9,0.4-2.7,0.6
					c-0.5,0.1-0.8,0.2-0.9,0.2c-0.2,0-0.3-0.1-0.5-0.2h-0.1c-0.1,0-0.4,0.4-0.9,1.2c-0.7,1.3-1.2,2.1-1.4,2.4
					c-0.2,0.3-0.4,0.4-0.6,0.4s-0.4-0.1-0.6-0.3s-0.4-0.4-0.4-0.6c0-0.2,0.1-0.5,0.3-0.8s0.7-1,1.4-2c1.2-1.8,2.3-3.5,3.1-5.1
					c1.3-2.5,2.2-4,2.5-4.5c0.4-0.5,0.6-0.7,0.8-0.7C130.4,31.2,130.7,31.3,130.9,31.5z M131.5,38.9c-0.2-0.5-0.5-1.4-1-2.7
					c-0.5-1.4-0.8-2.3-0.9-2.6c-0.3,0.7-0.9,1.7-1.6,3.1l-1.7,3.2c0.1-0.1,0.5-0.2,1-0.2c0.4,0,0.8-0.1,1.1-0.2
					C130.3,39.2,131.2,39,131.5,38.9z"/>
				<path class="st16" d="M143,45.5c-0.6,0-1.4-0.2-2.2-0.6s-1.6-1.1-2-2.1c-0.5-1-0.7-2.1-0.7-3.2c0-0.7,0.2-1.9,0.5-3.6
					c0.1-0.3,0.1-0.8,0.2-1.5c0.2-1.3,0.3-2.1,0.4-2.4s0.2-0.5,0.4-0.6c0.2-0.2,0.4-0.2,0.6-0.2c0.2,0,0.3,0.1,0.5,0.4
					s0.2,0.5,0.2,0.7c0,0.1-0.1,0.7-0.4,1.7c-0.1,0.5-0.3,1.4-0.5,2.7s-0.3,2.2-0.3,2.7c0,1.7,0.4,2.9,1.2,3.5s1.5,0.9,2.1,0.9
					c1.1,0,2-0.2,2.7-0.5s1.3-0.9,1.7-1.8c0.4-0.9,0.7-2.4,0.8-4.8c0.2-2.4,0.4-3.9,0.6-4.4s0.6-0.9,1-0.9s0.6,0.3,0.6,1
					c0,0.6-0.1,1.5-0.4,2.9c-0.2,0.8-0.3,1.8-0.3,2.9c-0.1,0.9-0.2,1.6-0.3,2.3s-0.3,1.2-0.5,1.7c-0.3,0.4-0.6,0.9-1,1.2
					c-0.4,0.4-0.8,0.7-1.2,1s-1,0.5-1.7,0.7C144.2,45.4,143.5,45.5,143,45.5z"/>
				<path class="st16" d="M155.2,31.7c1.8-0.3,3.2-0.4,4-0.4c1.3,0,2.4,0.3,3.1,0.9c0.8,0.6,1.2,1.4,1.2,2.3c0,0.9-0.4,1.8-1.2,2.6
					s-1.9,1.5-3.1,1.9c-0.2,0.1-0.2,0.1-0.2,0.2c0,0.1,0.6,0.7,1.9,1.6c1.3,1,2.5,1.8,3.5,2.5c0.3,0.2,0.5,0.4,0.5,0.7
					c0,0.2-0.1,0.4-0.3,0.6s-0.4,0.3-0.6,0.3c-0.4,0-1-0.3-1.8-0.9c-0.8-0.6-1.6-1.3-2.5-2c-1.9-1.6-2.9-2.4-3.1-2.4
					c-0.4,0-0.7-0.1-0.9-0.2c-0.2-0.1-0.3-0.3-0.3-0.6c0-0.2,0.1-0.4,0.3-0.6c0.2-0.2,0.5-0.3,0.8-0.3c0.1,0,0.3,0,0.5,0
					s0.4,0.1,0.5,0.1c0.5,0,1.3-0.4,2.5-1.1c1.2-0.7,1.8-1.6,1.8-2.6c0-0.5-0.3-1-0.8-1.4s-1.2-0.6-2.1-0.6c-0.6,0-1.2,0-1.9,0.1
					s-1,0.2-1.2,0.2c-0.2,0.1-0.3,0.2-0.4,0.5s-0.3,1.1-0.5,2.5s-0.4,2.7-0.6,3.9c-0.1,1.2-0.2,2.1-0.2,2.7c0,0.4,0,0.8,0.1,1.2
					c0.1,0.3,0.1,0.6,0.1,0.8s-0.1,0.4-0.3,0.6s-0.4,0.3-0.6,0.3c-0.7,0-1-0.5-1-1.6c0-2.5,0.4-5.8,1.3-9.9c0-0.2,0.1-0.3,0.1-0.4
					s0-0.1-0.1-0.2c-0.2-0.4-0.4-0.7-0.4-0.8c0-0.2,0.1-0.4,0.3-0.6s0.4-0.3,0.6-0.3L155.2,31.7z"/>
				<path class="st16" d="M174,31.5c0.1,0,0.1,0.2,0.1,0.5s0,0.5-0.1,0.6l0.1,0.4c0.2,0.7,0.4,1.3,0.6,1.8c0.2,0.6,0.5,1.3,0.7,2
					c0.6,1.7,1.1,3.1,1.7,4.3c0.6,1.2,1.1,2,1.6,2.5c0.3,0.3,0.5,0.5,0.6,0.6s0.1,0.3,0.1,0.4c0,0.3-0.1,0.5-0.3,0.7
					s-0.4,0.3-0.7,0.3c-0.8,0-1.8-1.2-2.9-3.7c-0.5-1-0.7-1.5-0.8-1.5c-0.3,0-0.9,0.1-1.9,0.3s-1.9,0.4-2.7,0.6
					c-0.5,0.1-0.8,0.2-0.9,0.2c-0.2,0-0.3-0.1-0.5-0.2h-0.1c-0.1,0-0.4,0.4-0.9,1.2c-0.7,1.3-1.2,2.1-1.4,2.4
					c-0.2,0.3-0.4,0.4-0.6,0.4c-0.2,0-0.4-0.1-0.6-0.3c-0.2-0.2-0.4-0.4-0.4-0.6c0-0.2,0.1-0.5,0.3-0.8s0.7-1,1.4-2
					c1.2-1.8,2.3-3.5,3.1-5.1c1.3-2.5,2.2-4,2.5-4.5c0.4-0.5,0.6-0.7,0.8-0.7C173.5,31.2,173.8,31.3,174,31.5z M174.6,38.9
					c-0.2-0.5-0.5-1.4-1-2.7c-0.5-1.4-0.8-2.3-0.9-2.6c-0.3,0.7-0.9,1.7-1.6,3.1l-1.7,3.2c0.1-0.1,0.5-0.2,1-0.2
					c0.4,0,0.8-0.1,1.1-0.2C173.3,39.2,174.3,39,174.6,38.9z"/>
				<path class="st16" d="M190.8,42.5c0.4-1.5,0.7-3.3,1.1-5.4c0.4-2.2,0.5-3.7,0.5-4.5c0-0.5,0-0.8,0.1-0.9
					c0.1-0.2,0.2-0.3,0.4-0.4s0.5-0.2,0.7-0.2s0.3,0.1,0.4,0.4s0.2,0.5,0.2,0.9c0,0.3-0.1,0.7-0.3,1.4c-0.4,1.5-0.8,3.4-1.2,5.5
					s-0.6,3.3-0.6,3.7c0,0.7,0,1.1,0,1.3c0,0.3-0.1,0.6-0.3,0.8s-0.5,0.3-0.9,0.3c-0.2,0-0.4,0-0.5-0.1s-0.2-0.2-0.5-0.5
					c-0.2-0.3-0.4-0.5-0.5-0.8c0-0.2-0.2-0.5-0.6-0.9c-1.8-2.3-3.4-4.8-4.8-7.5c-0.4,1.4-0.8,3.4-1.1,6l-0.2,1.6c0,0.2,0,0.5,0,0.9
					s0,0.8-0.1,0.9s-0.2,0.3-0.4,0.6c-0.2,0.2-0.4,0.3-0.6,0.3c-0.4,0-0.7-0.2-0.7-0.5c-0.1-0.4-0.1-0.6-0.1-0.8
					c0-0.5,0.1-1.2,0.4-2.2c0.3-1,0.6-2.6,1-4.7c0.4-2.1,0.6-3.5,0.6-4v-0.5c0-0.2,0-0.3,0.1-0.5c0.1-0.1,0.2-0.3,0.4-0.4
					c0.2-0.1,0.4-0.1,0.5-0.1c0.2,0,0.3,0,0.5,0.1s0.2,0.2,0.3,0.3s0.1,0.4,0.2,0.8c0.2,1.2,1,2.8,2.3,4.8
					C188.7,39.9,189.9,41.4,190.8,42.5z"/>
				<path class="st16" d="M195.6,33.5c-0.1-0.1-0.1-0.3-0.1-0.5c0-0.3,0.1-0.5,0.3-0.6s0.8-0.2,1.8-0.2c1.2,0,2.3-0.1,3.3-0.1
					s2.5-0.3,4.5-0.5c0.8-0.1,1.5-0.2,2.2-0.2c0.4,0,0.7,0,1,0.1s0.5,0.1,0.7,0.1c0.1,0,0.2,0.2,0.3,0.3c0.1,0.2,0.1,0.3,0.1,0.4
					c0,0.4-0.2,0.7-0.5,0.7c-0.2,0-0.5,0-0.8-0.1c-0.4,0-0.8,0-1.5,0c-0.6,0-1.4,0-2.3,0.1c-0.9,0.1-1.4,0.2-1.5,0.4
					s-0.3,1.4-0.5,3.6s-0.3,3.9-0.3,4.9c0,0.5,0.1,1.1,0.2,1.7c0,0.1,0,0.2,0,0.2c0,0.3-0.1,0.5-0.2,0.7c-0.1,0.2-0.3,0.3-0.5,0.3
					c-0.3,0-0.6-0.2-0.8-0.5s-0.3-1.2-0.3-2.6c0-1.4,0.3-4,0.8-7.9c0-0.2,0-0.3,0-0.3c0-0.2-0.1-0.3-0.3-0.3c-0.4,0-1.1,0-2.1,0.1
					s-1.8,0.1-2.2,0.1C196.2,33.9,195.8,33.8,195.6,33.5z"/>
			</g>
		</g>
	</g>
	<path class="st17" d="M100.5,195.1c2,1.7,3.1,2.3,8.2,6.5c0,0-3.6,3.1-7.8,4.8c-0.4,0.1-8.4-7.3-10.2-11.3c-0.5-1.1-0.5-1.6,0-1.9
		c0.5-0.3,1.2,0.2,1.8,0.9c2,2.3,4.3,5.4,4.3,5.4S99.8,194.5,100.5,195.1z"/>
	<path class="st18" d="M91.8,193.5c-0.2-0.5-0.3-1.2,0.1-1.6c0.5-0.3,1.1,0.3,1.3,0.5c0.3,0.4,1.6,1.8,2.1,2.7"/>
	<path class="st18" d="M93.2,192.4c-0.1-0.3-0.1-0.9,0.2-1.2c0.3-0.3,0.6-0.1,0.9,0c0.2,0.1,0.4,0.3,0.6,0.5c0.8,1,1.6,1.9,2.4,2.9"
		/>
	<path class="st18" d="M94.7,191.5c-0.1-0.1-0.1-0.3-0.1-0.4c0-0.1,0-0.3,0.2-0.4c0.1-0.1,0.2-0.1,0.3-0.1c0.5,0,1,0.5,1.4,0.9
		c0.8,0.9,2,1.9,3.1,3.1"/>
	<g>
		<path class="st19" d="M202.1,145.7c-4.7,6.7-28.2,11.8-43.6-0.6c-0.6-0.4-2.3-2-2.7-2.3c-3.2-3.4-6.1-7.7-8-13.4
			c-1.5,0.2-3.3,0.3-4.9,0.1c-1.2-0.2-2.5-0.5-3.2-1.5c-0.4-0.6-0.5-1.3-0.4-2s0.3-1.4,0.6-2c0.7-1.3,7.6-6.9,8.1-7.1
			c-0.2-2.6,0.5-17.8,7-25.1c3.7-4.1,10.4-2.9,15.8-3c3.4,0,6.9-0.1,10.2,0.8c2.8,0.7,5.3,2.1,7.8,3.6c5.9,3.7,11.1,8.6,15.3,14.3
			c1.4,1.9,2.7,3.9,3.2,6.2c0.5,2,0.3,4.1,0.1,6.2C206.7,128.2,207,138.8,202.1,145.7z"/>
		<path class="st20" d="M223.1,100.8c-5.8-20.3-18.4-22.2-35.9-24.6c-3.7-0.9-16.1,1.8-23.5,3.4c-2.3,0.5-4,0.9-5,1.1
			c-5.9,1.1-9.4,4.5-10.7,7.3c-0.7,1.6-0.9,3-0.3,4c1.6,3,7.7,5.3,15.8,3.6c1.4-0.4,3-0.2,4.5-0.1c1.8,0.1,3.6,0.3,5.2-0.3
			c1.6-0.6,3.4-1,4.6,1.2l0.1,0.1c0.4,0.4,0.4,2.4,0.3,3.5c-0.2,1.3-0.6,2.3-0.9,3.3c-0.4,1.2-0.8,2.4-0.8,3.8c0,2.2,0,4.2,1,6.3
			c1,2.2,2.6,3.9,4.4,4.7l0.4,0.2l0.1-0.4c0.3-0.7,0.4-1.4,0.5-2.1c0.1-0.7,0.2-1.3,0.4-1.9c0.4-0.9,1-1.6,1.7-2.2
			c0.9-0.8,2-1.6,3-1.9c2.7-0.6,5-0.3,7,1c3.5,2.4,4.9,7.3,5.1,9.1c0.8,5.8-2.3,7-4.1,7.7c-0.4,0.2-0.8,0.3-1,0.5
			c-0.2,0.2-0.8,0.5-1.4,0.8c-2,1.1-3.5,2-3.7,2.7c-0.3,0.6-0.2,1.4-0.1,2.1c0.1,2.2,0.4,5.3,2.1,7.8c0.8,1.3,1.8,2.2,3,3.3l0.1,0.1
			c2.5,2.3,6,5.1,9.8,6.5c0.6,0.2,1.4,0.3,2.4,0.3c2.5,0,5.6-0.7,7-1.3c0.6,0,1-0.4,1.2-0.7l0.1-0.1c0-0.1,0.1-0.2,0.1-0.3
			c0.1-0.2,0.2-0.4,0.3-0.6c0.7-1.9,0.9-3.7,1-5.9l0.1-0.2C226.1,131.1,229,121.6,223.1,100.8z"/>
		<path class="st21" d="M169.5,139.6c-0.6,1.5-2.3,2.5-3.9,2.4"/>
		<g>
			<g>
				<path class="st20" d="M160.3,118.8c1.6,0,1.6-2.5,0-2.5S158.7,118.8,160.3,118.8L160.3,118.8z"/>
			</g>
		</g>
	</g>
	<path class="st20" d="M240.8,175.8c-0.8-5-5.7-19.6-17.7-27.6c-7.9-5.2-17.3-6.6-28.1-4.2c-4.7,1.1-13.2,3.3-16.8,6.2
		c-3.8,3-6.1,6.6-8.7,10.8l-0.6,1c-9.7,15.6-14.6,53.5-15.6,65.6c-0.3,3.5-1.4,21,0.1,22.4h0.1h87.2h0.1
		C241.9,248.1,245.4,202.1,240.8,175.8z"/>
	<path class="st22" d="M157.1,216.5c-15.1-2.3-23.4-8-49.9-16.1c-1.2,1.5-6.3,6-6.3,6c14,11.8,49.8,40,61,34.1
		c6-3.2,26.6-57.6,16.1-84.2c-0.5-1.3-2.4-1.8-3.7-1.3s-2.2,1.7-3,2.9c-1.9,2.6-3.7,5.3-5.2,8.2c-6.2,12.1-14.9,37.2-16.5,48.9"/>
	<path class="st23" d="M67.7,161.6c-18.1-2.1-7.7,41.9-2,62.2"/>
	<path class="st17" d="M95.6,197.3c0.3-1.5,0.7-2.6,1.3-4.1c0.2-0.5,0.8-1.5,1.2-1.2c1,0.5-0.4,4-1,5.8c0.5-1.4,0.9-2.8,1.4-4.1
		c0.3-0.9,0.7-1.2,1.2-1c0.7,0.4-0.8,5.2-1,5.6c0.3-1,0.6-2,0.9-3.1c0.1-0.5,0.3-1.3,0.7-1.2c0.7,0.6,0.7,1.7,0.7,2.7
		c-0.3,3.9-1,7.7-2,11.4l-7.4-4.3c0.8-2.9,2.1-6.4,3.2-9.4c0.3-0.8,1-2.2,1.4-2C96.9,192.7,95.7,196.7,95.6,197.3z"/>
	<g>
		<path class="st24" d="M57.5,88.7c8.2,5.6,12.6,20.5,13,23c0.6,0.2,8.7,3.9,9.7,5c2.2,2.7-4.8,7-6.4,7.1
			c-0.6,6.6-2.6,12.1-5.5,16.4c-0.3,0.5-2.9,3.7-3,3.9c-12.5,13.8-35.7,9-41.8,3.9"/>
		<path class="st25" d="M59.8,115.2c-0.5-0.3-1.4-0.2-1.8,0.6c-0.4,0.8,0.1,1.5,0.6,1.7c0.5,0.2,1.2-0.2,1.5-0.7
			C60.3,116.4,60.3,115.5,59.8,115.2z"/>
		<path class="st23" d="M65.4,143.7c-1.8,0-3.6-0.8-4.8-2.1"/>
	</g>
	<path class="st17" d="M100.8,201.9c-3.8-0.4-4.8-0.6-7-0.8c-0.3,0-1,0.1-1.3,0.4c-0.6,0.7-0.1,1.6,0.6,2c2.2,1.4,5.5,2.2,8.2,3.2
		c0,0,3.1-3.2,5.9-6.3"/>
	<path class="st22" d="M0,176.1c1.6-2.6,11.5-27.5,51-22.6c8.8,2.2,14.5,5.8,18.4,9.7c6,6.1,2.4,23.9,2.1,30.3s-2.9,51.8-3,56.6H0
		V250"/>
	<g>
		<path class="st26" d="M89.9,232.2c-5.2-11.5-8.2-28.9-9.9-40.7s-8.1-32.8-15.6-29.2c-11.5,1-7.1,32.4-0.3,60.1
			c1.6,6.3,4,12.7,9.1,20.1c4.3,6.2,15.8,9.3,20-5.9c3.3-11.8,4.9-24.1,5.8-28.4l-7.4-4.3c-0.7,1-5.9,12.1-6.9,13.5"/>
	</g>
	<path class="st25" d="M46.4,113.3c1.9-1.9,4-3.8,5.9-6.4c4.7-6.3,6.5-12,6.3-20.2l0-0.3l-0.3-0.1c-12-2.6-24.5-5-34.3-2
		C14.6,87.2,7.1,93,4,99.9c-4.3,9.4-4,40.1-4,41.5v80.8l51.1-0.1l0-0.3c1.4-39.6-5.7-62.5-10.4-77.6c-3.1-10-5-16-2.4-20.7
		C40.8,118.7,43.5,116.1,46.4,113.3z"/>
</g>
</svg>
