<svg width="64" height="64" xmlns="http://www.w3.org/2000/svg">

 <g>
  <title>background</title>
  <rect fill="none" id="canvas_background" height="402" width="582" y="-1" x="-1"/>
 </g>
 <g>
  <title>Layer 1</title>
  <path id="svg_2" fill="#393737" d="m52.431,3.116l-28.577,0l-15.521,15.521l0,39.011c0,1.787 1.449,3.236 3.236,3.236l40.862,0c1.787,0 3.236,-1.449 3.236,-3.236l0,-51.296c0,-1.787 -1.449,-3.236 -3.236,-3.236zm-29.349,4.501l0,11.042l-11.042,0l11.042,-11.042zm29.948,50.63l-42.06,0l0,-36.952l11.513,0c1.787,0 3.236,-1.449 3.236,-3.236l0,-12.306l27.311,0l0,52.494z"/>
  <path id="svg_5" fill="#393737" d="m27.549,53.631l-13.899,0c-0.29,0 -0.524,-0.61 -0.524,-1.362c0,-0.752 0.235,-1.362 0.524,-1.362l13.899,0c0.29,0 0.524,0.61 0.524,1.362c0.001,0.752 -0.234,1.362 -0.524,1.362z"/>
  <path id="svg_6" fill="#393737" d="m31.858,45.385l-18.051,0c-0.376,0 -0.681,-0.61 -0.681,-1.362c0,-0.752 0.305,-1.362 0.681,-1.362l18.052,0c0.376,0 0.681,0.61 0.681,1.362c0,0.752 -0.305,1.362 -0.682,1.362z"/>
  <path id="svg_7" fill="#393737" d="m27.549,37.139l-13.899,0c-0.29,0 -0.524,-0.61 -0.524,-1.362c0,-0.752 0.235,-1.362 0.524,-1.362l13.899,0c0.29,0 0.524,0.61 0.524,1.362c0.001,0.752 -0.234,1.362 -0.524,1.362z"/>
  <path id="svg_8" fill="#393737" d="m31.858,28.894l-18.051,0c-0.376,0 -0.681,-0.61 -0.681,-1.362s0.305,-1.362 0.681,-1.362l18.052,0c0.376,0 0.681,0.61 0.681,1.362s-0.305,1.362 -0.682,1.362z"/>
  <path id="svg_9" fill="#393737" d="m44.606,37.618c-0.388,-0.138 -0.749,-0.268 -1.084,-0.395c-0.816,-0.306 -1.476,-0.584 -1.987,-0.87c-0.962,-0.535 -1.405,-1.095 -1.405,-1.918c0,-0.745 0.463,-1.422 1.405,-1.815c0.517,-0.218 1.178,-0.35 1.987,-0.36c0.039,-0.002 0.077,-0.002 0.117,-0.002c2.363,0 4.083,0.636 5.05,1.072l1.218,-4.121c-1.433,-0.603 -3.439,-1.139 -6.161,-1.139c-0.075,0 -0.15,0.001 -0.224,0.002l0,-1.901l-1.987,0l0,2.06c-4.362,0.664 -6.922,3.316 -6.922,6.641c0,3.283 2.615,5.361 6.627,6.668c0.101,0.033 0.199,0.067 0.296,0.1c0.802,0.277 1.459,0.542 1.987,0.815c1.239,0.639 1.764,1.316 1.764,2.268c0,0.994 -0.602,1.76 -1.764,2.152c-0.542,0.184 -1.206,0.287 -1.987,0.293c-0.027,0.001 -0.054,0.001 -0.081,0.001c-2.329,0 -4.585,-0.704 -6.054,-1.407l-1.11,4.222c1.361,0.704 4.083,1.374 6.842,1.374c0.136,0 0.27,-0.001 0.403,-0.005l0,2.279l1.987,0l0,-2.43c4.989,-0.684 7.352,-3.549 7.352,-6.848c-0.001,-3.185 -2.006,-5.262 -6.269,-6.736z"/>
 </g>
</svg>