<?xml version="1.0" ?><svg id="Layer_1" style="enable-background:new 0 0 512 512;" version="1.1" viewBox="0 0 512 512" xml:space="preserve" xmlns="http://www.w3.org/2000/svg" xmlns:xlink="http://www.w3.org/1999/xlink"><style type="text/css">
	.st0{fill:none;stroke:#000000;stroke-width:2;stroke-linecap:round;stroke-linejoin:round;stroke-miterlimit:10;}
	.st1{stroke:#000000;stroke-width:2;stroke-linecap:round;stroke-linejoin:round;stroke-miterlimit:10;}
	.st2{fill:#FFFFFF;}
</style><g><g><path d="M168.27,326.33H66.65c-19.6,0-35.55-15.95-35.55-35.55V192.9c0-19.6,15.95-35.55,35.55-35.55h101.62    c4.27,0,7.73,3.46,7.73,7.73V318.6C176,322.87,172.54,326.33,168.27,326.33z M66.65,172.8c-11.08,0-20.09,9.01-20.09,20.09v97.89    c0,11.08,9.01,20.09,20.09,20.09h93.89V172.8H66.65z"/></g><g><path d="M146.21,447.97c-0.74,0-1.47-0.11-2.19-0.32c-2.03-0.6-3.73-2.01-4.69-3.89L77.1,322.12c-1.23-2.4-1.12-5.26,0.29-7.55    c1.4-2.29,3.9-3.69,6.59-3.69h44.14c2.76,0,5.31,1.47,6.69,3.86l57.2,99.06c2.13,3.69,0.87,8.42-2.83,10.56l-39.1,22.58    C148.89,447.62,147.55,447.97,146.21,447.97z M96.61,326.33l52.77,103.16l25.37-14.65l-51.1-88.51H96.61z"/></g><g><path d="M38.83,282.34H21.01C9.98,282.34,1,273.36,1,262.33v-40.98c0-11.04,8.98-20.01,20.01-20.01h17.82    c4.27,0,7.73,3.46,7.73,7.73v65.55C46.56,278.88,43.1,282.34,38.83,282.34z M21.01,216.79c-2.51,0-4.56,2.05-4.56,4.56v40.98    c0,2.51,2.05,4.56,4.56,4.56H31.1v-50.1H21.01z"/></g><g><path d="M176.75,173.1c-5.25,0-8.49-0.26-9.19-0.33c-4.24-0.39-7.37-4.14-6.98-8.39c0.38-4.25,4.2-7.32,8.38-7    c1.01,0.1,101.07,7.81,170.45-85.88c2.54-3.42,7.37-4.15,10.81-1.61c3.43,2.54,4.15,7.38,1.61,10.81    C288.97,165.6,204.59,173.1,176.75,173.1z"/></g><g><path d="M345.21,414.8c-2.37,0-4.7-1.08-6.22-3.13c-51.36-69.37-119.3-82.85-151.52-85.13c3.27,4.86,5.72,10.78,5.58,17.54    c-0.29,13.28-10.29,25.36-29.72,35.9c-3.75,2.03-8.44,0.65-10.48-3.11c-2.04-3.75-0.65-8.44,3.11-10.48    c13.98-7.58,21.46-15.41,21.64-22.62c0.21-8.4-9.55-16.22-13.33-18.53c-2.84-1.73-4.26-5.09-3.52-8.33    c0.74-3.24,3.46-5.65,6.77-5.97c4.44-0.43,109.15-9.43,183.89,91.51c2.54,3.43,1.82,8.27-1.61,10.81    C348.41,414.3,346.8,414.8,345.21,414.8z"/></g><g><path d="M378.15,419.69h-27.98c-8.1,0-14.68-6.58-14.68-14.68V78.71c0-8.1,6.58-14.68,14.68-14.68h27.98    c7.21,0,13.08,5.86,13.08,13.07v329.51C391.23,413.83,385.36,419.69,378.15,419.69z M350.94,404.24h24.83V79.49h-24.83V404.24z"/></g><g><path d="M383.16,303.44c-4.27,0-7.73-3.46-7.73-7.73c0-4.27,3.46-7.73,7.73-7.73c25.43,0,46.13-20.69,46.13-46.13    s-20.69-46.13-46.13-46.13c-4.27,0-7.73-3.46-7.73-7.73c0-4.27,3.46-7.73,7.73-7.73c33.95,0,61.58,27.63,61.58,61.58    S417.12,303.44,383.16,303.44z"/></g><g><path d="M438.99,177.48c-1.98,0-3.95-0.75-5.46-2.26c-3.02-3.02-3.02-7.91,0-10.93l39.9-39.9c3.02-3.02,7.91-3.02,10.93,0    c3.02,3.02,3.02,7.91,0,10.93l-39.9,39.9C442.95,176.73,440.97,177.48,438.99,177.48z"/></g><g><path d="M478.9,361.55c-1.98,0-3.95-0.75-5.46-2.26l-39.9-39.9c-3.02-3.02-3.02-7.91,0-10.93s7.91-3.02,10.93,0l39.9,39.9    c3.02,3.02,3.02,7.91,0,10.93C482.85,360.8,480.88,361.55,478.9,361.55z"/></g><g><path d="M503.27,249.57h-37.95c-4.27,0-7.73-3.46-7.73-7.73c0-4.27,3.46-7.73,7.73-7.73h37.95c4.27,0,7.73,3.46,7.73,7.73    C511,246.11,507.54,249.57,503.27,249.57z"/></g></g></svg>