<svg width="24" height="24" xmlns="http://www.w3.org/2000/svg">
 <title/>

 <g>
  <title>background</title>
  <rect fill="none" id="canvas_background" height="402" width="582" y="-1" x="-1"/>
 </g>
 <g>
  <title>Layer 1</title>
  <line id="svg_1" y2="14.5" y1="14.5" x2="8.99741" x1="3.06577" stroke-linejoin="round" stroke-linecap="round" stroke="#000" fill="none"/>
  <path id="svg_2" stroke-linejoin="round" stroke-linecap="round" stroke="#000" fill="none" d="m8.5,13a2.5,2.5 0 0 0 -5,0"/>
  <line id="svg_3" y2="9.5" y1="10.5" x2="6" x1="6" stroke-linejoin="round" stroke-linecap="round" stroke="#000" fill="none"/>
  <path id="svg_4" stroke-linejoin="round" stroke-linecap="round" stroke="#000" fill="none" d="m10.5,21.5"/>
  <path id="svg_5" stroke-linejoin="round" stroke-linecap="round" stroke="#000" fill="none" d="m11.5,20.5"/>
  <polygon id="svg_6" stroke-linejoin="round" stroke-linecap="round" stroke="#000" points="11.5 3.5 11.5 20.5 10.5 21.5 0.5 21.5 0.5 2.5 10.5 2.5 11.5 3.5" fill="none"/>
  <polyline id="svg_7" stroke-linejoin="round" stroke-linecap="round" stroke="#000" points="11.5 20.5 12.5 21.5 22.5 21.5 22.5 2.5 12.5 2.5 11.5 3.5" fill="none"/>
  <line id="svg_8" y2="6.5" y1="6.5" x2="15.5" x1="13.5" stroke-linejoin="round" stroke-linecap="round" stroke="#000" fill="none"/>
  <line id="svg_9" y2="9.5" y1="9.5" x2="17.5" x1="13.5" stroke-linejoin="round" stroke-linecap="round" stroke="#000" fill="none"/>
  <line id="svg_10" y2="9.5" y1="9.5" x2="20.5" x1="19.5" stroke-linejoin="round" stroke-linecap="round" stroke="#000" fill="none"/>
  <line id="svg_11" y2="11.5" y1="11.5" x2="17.5" x1="13.5" stroke-linejoin="round" stroke-linecap="round" stroke="#000" fill="none"/>
  <line id="svg_12" y2="11.5" y1="11.5" x2="20.5" x1="19.5" stroke-linejoin="round" stroke-linecap="round" stroke="#000" fill="none"/>
  <line id="svg_13" y2="13.5" y1="13.5" x2="17.5" x1="13.5" stroke-linejoin="round" stroke-linecap="round" stroke="#000" fill="none"/>
  <line id="svg_14" y2="13.5" y1="13.5" x2="20.5" x1="19.5" stroke-linejoin="round" stroke-linecap="round" stroke="#000" fill="none"/>
  <line id="svg_15" y2="15.5" y1="15.5" x2="17.5" x1="13.5" stroke-linejoin="round" stroke-linecap="round" stroke="#000" fill="none"/>
  <line id="svg_16" y2="15.5" y1="15.5" x2="20.5" x1="19.5" stroke-linejoin="round" stroke-linecap="round" stroke="#000" fill="none"/>
  <rect id="svg_17" width="24" height="24" fill="none"/>
 </g>
</svg>