<?xml version="1.0" encoding="utf-8"?>
<!-- Generator: Adobe Illustrator 19.2.1, SVG Export Plug-In . SVG Version: 6.00 Build 0)  -->
<svg version="1.1" id="Слой_1" xmlns="http://www.w3.org/2000/svg" xmlns:xlink="http://www.w3.org/1999/xlink" x="0px" y="0px"
	 viewBox="0 0 250 250" style="enable-background:new 0 0 250 250;" xml:space="preserve">
<style type="text/css">
	.st0{fill:#FFFFFF;}
	.st1{fill:#1C2125;stroke:#1C2125;stroke-width:0.5;stroke-miterlimit:10;}
	.st2{fill:#D3D2D2;stroke:#1C2125;stroke-width:0.75;stroke-miterlimit:10;}
	.st3{fill:#353738;stroke:#1C2125;stroke-width:0.5;stroke-miterlimit:10;}
	.st4{fill:#7A7A7A;}
	.st5{fill:#FFFFFF;stroke:#1C2125;stroke-width:0.75;stroke-miterlimit:10;}
	.st6{fill:#8E8E8E;stroke:#1C2125;stroke-width:0.75;stroke-miterlimit:10;}
</style>
<rect class="st0" width="250" height="250"/>
<g>
	<path class="st1" d="M90.1,8.7c0.4-0.4,72.2-0.9,87.6-1c1.6,0,2.9,1.3,2.9,2.9l-0.5,154.3c0,1.6-1.3,2.9-2.9,3
		c-14.3,0.5-77.6,2.7-84.1,1.7c-0.7-0.1-1.5-0.3-2-0.9c-0.3-0.5-0.4-1-0.5-1.6C89.1,151.4,89.7,9.2,90.1,8.7z"/>
	<path class="st2" d="M96.9,139.3c0,0.6,0.2,1.2,0.7,1.6c0.5,0.4,51.4,1.4,76-1c0.6-0.1,1.2-0.1,1.6-0.6c0.4-0.4,0.4-1.1,0.4-1.7
		c0-39.4-0.5-74.6-1.3-115.1c0-0.6-0.1-2.6-0.5-3c-0.5-0.5-1.2-0.5-1.9-0.5c-13.3,0.1-75-2.5-75.1,1.6
		C96.8,25.6,96.2,123.6,96.9,139.3z"/>
	<path class="st3" d="M153.4,74.2h-36.5c-2.8,0-5-2.3-5-5V32.7c0-2.8,2.3-5,5-5h36.5c2.8,0,5,2.3,5,5v36.5
		C158.4,72,156.2,74.2,153.4,74.2z"/>
	<g>
		<path class="st4" d="M131,84.3c-0.2,0.2-0.5,0.6-0.9,1.2c-0.4,0.6-0.7,0.9-0.9,1.1c-0.2,0.2-0.3,0.2-0.4,0.2
			c-0.1,0-0.2-0.1-0.2-0.2s-0.2-0.4-0.3-0.7c-0.3-0.8-0.4-1.2-0.5-1.3c0,0.1-0.1,0.2-0.1,0.3c-0.1,0.3-0.1,0.7-0.3,1.2
			c-0.2,0.9-0.3,1.5-0.3,1.8c0,0,0,0.1-0.1,0.1c-0.1,0-0.1,0.1-0.1,0.1c-0.1,0-0.1,0-0.2-0.1c-0.1-0.1-0.1-0.1-0.1-0.2
			c0-0.2,0.1-0.5,0.2-0.9l0.3-1c0.2-0.6,0.3-1.1,0.3-1.4c0-0.3,0.1-0.5,0.1-0.7c0-0.2,0.1-0.3,0.4-0.3c0.1,0,0.1,0,0.2,0.1
			c0.1,0.1,0.1,0.2,0.1,0.3c0,0.1,0.1,0.2,0.1,0.3l0.4,1.1c0.2,0.5,0.3,0.7,0.3,0.8c0,0.1,0.1,0.1,0.1,0.1c0.1,0,0.5-0.5,1.1-1.3
			c0.7-0.9,1.1-1.4,1.2-1.4c0.1,0,0.2,0,0.3,0.1s0.1,0.1,0.1,0.2c0,0-0.1,0.5-0.2,1.3c0,0.3-0.1,0.7-0.1,1.1c0,0.4-0.1,0.7-0.1,0.7
			c0,0.1,0,0.2,0.1,0.3c0,0.1,0,0.2,0,0.3c0,0.1,0,0.1,0,0.2c0,0.1-0.1,0.2-0.1,0.2c-0.1,0-0.1,0-0.2,0c-0.2,0-0.3-0.2-0.3-0.5
			c0-0.3,0.1-1.1,0.2-2.3c0-0.1,0-0.2,0-0.2c0,0,0-0.1,0-0.2c0-0.1,0-0.2,0-0.2C131,84.4,131,84.3,131,84.3z"/>
		<path class="st4" d="M134.5,86.5c-0.3,0.4-0.5,0.8-0.8,1c-0.3,0.2-0.5,0.4-0.7,0.4c-0.1,0-0.3-0.1-0.4-0.2s-0.2-0.4-0.2-0.7
			c0-0.3,0.1-0.6,0.2-1.1c0.1-0.4,0.2-0.7,0.2-0.9c0.1-0.1,0.1-0.2,0.3-0.2c0.1,0,0.1,0,0.2,0.1c0,0.1,0.1,0.1,0.1,0.2
			c0,0.1,0,0.3-0.1,0.6c-0.2,0.5-0.3,0.9-0.3,1.3c0,0.3,0.1,0.5,0.2,0.5c0.2,0,0.4-0.2,0.7-0.5c0.3-0.3,0.6-0.8,0.8-1.4
			c0.1-0.2,0.2-0.4,0.2-0.5c0.1-0.1,0.1-0.1,0.2-0.1c0.1,0,0.2,0.1,0.2,0.3c0,0,0,0.1-0.1,0.2c-0.1,0.4-0.2,0.8-0.2,1.2
			c0,0.5,0.1,0.8,0.2,0.9c0.1,0.1,0.1,0.1,0.1,0.2c0,0.1,0,0.1-0.1,0.2c-0.1,0-0.2,0.1-0.2,0.1c-0.1,0-0.3-0.1-0.3-0.3
			c-0.1-0.2-0.1-0.5-0.1-0.9L134.5,86.5C134.5,86.6,134.5,86.6,134.5,86.5z"/>
		<path class="st4" d="M137.6,87.1c0-0.1-0.2-0.3-0.5-0.4c-0.4-0.2-0.7-0.4-0.8-0.5s-0.2-0.3-0.2-0.4c0-0.4,0.2-0.7,0.6-1
			s0.7-0.4,1-0.4c0.2,0,0.3,0,0.3,0.1c0.1,0.1,0.1,0.2,0.1,0.3c0,0.1,0,0.1-0.1,0.2c-0.1,0-0.1,0.1-0.1,0.1c0,0-0.1,0-0.1,0
			c-0.1,0-0.1,0-0.1,0c-0.1,0-0.3,0.1-0.6,0.2c-0.3,0.1-0.5,0.3-0.5,0.5c0,0.1,0.1,0.2,0.2,0.3c0.1,0.1,0.3,0.2,0.6,0.3
			c0.2,0.1,0.4,0.2,0.5,0.3c0.1,0.1,0.2,0.3,0.2,0.4c0,0.3-0.2,0.5-0.6,0.7c-0.4,0.2-0.8,0.3-1.2,0.3c-0.3,0-0.5-0.1-0.5-0.3
			c0-0.1,0-0.1,0.1-0.2s0.1-0.1,0.2-0.1c0,0,0.1,0,0.2,0c0.1,0,0.1,0,0.2,0c0.2,0,0.5,0,0.7-0.1C137.4,87.3,137.5,87.2,137.6,87.1z"
			/>
		<path class="st4" d="M139.2,87.2c0,0.2,0,0.3,0.1,0.5c0,0,0,0.1,0,0.1c0,0,0,0.1-0.1,0.1S139.1,88,139,88c-0.2,0-0.3-0.2-0.3-0.5
			c0-0.4,0.1-0.9,0.2-1.7c0.1-0.3,0.1-0.4,0.1-0.5c0-0.1,0-0.2,0.1-0.3c0-0.1,0.1-0.1,0.2-0.1c0.1,0,0.2,0,0.2,0.1
			c0.1,0,0.1,0.1,0.1,0.2c0,0.1,0,0.1,0,0.2c-0.1,0.5-0.2,0.9-0.3,1.1C139.3,86.6,139.2,86.8,139.2,87.2z M139.6,83.8
			c0,0-0.1,0-0.1-0.1c0,0,0-0.1,0-0.1c-0.1-0.1-0.1-0.2-0.1-0.3c0-0.1,0-0.2,0.1-0.2s0.2-0.1,0.3-0.1c0.1,0,0.1,0,0.2,0.1
			c0.1,0,0.1,0.1,0.1,0.1c0,0.1,0,0.2-0.1,0.3s-0.1,0.3-0.2,0.3C139.8,83.8,139.7,83.8,139.6,83.8z"/>
		<path class="st4" d="M141.2,88c-0.3,0-0.5-0.1-0.7-0.3c-0.2-0.2-0.2-0.4-0.2-0.7c0-0.5,0.2-1.1,0.6-1.6c0.4-0.6,0.8-0.9,1.1-0.9
			c0.2,0,0.3,0.1,0.4,0.3c0.1,0.2,0.2,0.4,0.2,0.6c0,0.1,0,0.2-0.1,0.3c-0.1,0.1-0.1,0.1-0.2,0.1c-0.1,0-0.2-0.1-0.2-0.3
			c-0.1-0.2-0.1-0.4-0.2-0.4c-0.2,0-0.4,0.2-0.7,0.7c-0.3,0.5-0.4,0.9-0.4,1.2s0.2,0.5,0.6,0.5c0.3,0,0.6-0.1,1-0.4
			c0.1-0.1,0.2-0.1,0.3-0.1c0.1,0,0.1,0,0.1,0.1c0,0.2-0.2,0.3-0.5,0.6C141.9,87.9,141.6,88,141.2,88z"/>
	</g>
	<path class="st1" d="M101.9,114.4c0,2.6,2.1,4.6,4.7,4.6c21.1-0.6,60.1,0.5,61.3-0.5c0.9-0.8,0.9-11.5,0.9-17.7
		c0-2.4-2-4.4-4.4-4.3c-11.3,0.1-41.8,0.4-58.1,0.8c-2.4,0.1-4.3,2.1-4.3,4.5L101.9,114.4z"/>
	<g>
		<path class="st0" d="M112.9,104.6c0-0.1-0.1-0.2-0.2-0.3c-0.3-0.1-0.4-0.2-0.4-0.4c0-0.1,0.1-0.3,0.2-0.4c0.1-0.1,0.2-0.2,0.4-0.2
			l0.8,0c0.4,0,0.8,0,1.4-0.1c0.6,0,1-0.1,1.3-0.1c1,0,1.8,0.3,2.4,0.8c0.6,0.6,0.9,1.3,0.9,2.2c0,1-0.4,1.9-1.3,2.7
			c-0.9,0.8-2.1,1.4-3.7,1.8c-0.6,0.2-1.1,0.3-1.3,0.5c-0.3,0.2-0.5,0.3-0.7,0.3c-0.1,0-0.3-0.1-0.4-0.2c-0.1-0.1-0.2-0.3-0.2-0.3
			c0,0,0-0.1,0.1-0.3c0.1-0.2,0.1-0.3,0.2-0.5s0.1-0.5,0.1-0.9c0-0.4,0.1-1.1,0.2-2.1c0.1-0.9,0.2-1.6,0.3-2
			C112.8,105,112.9,104.7,112.9,104.6z M113.8,104.2c-0.4,2.6-0.6,4.4-0.6,5.5c0,0.2,0,0.4,0.1,0.5c0,0,0.1,0,0.2,0
			c0.2,0,0.8-0.2,1.8-0.5c1-0.3,1.8-0.8,2.4-1.4c0.6-0.6,0.9-1.3,0.9-2.2c0-0.7-0.2-1.2-0.7-1.6c-0.5-0.4-1.1-0.6-1.9-0.6
			c-0.5,0-1,0-1.7,0.1C114.1,104.2,114,104.2,113.8,104.2z"/>
		<path class="st0" d="M126.9,104.2c0,0-0.1,0-0.3,0s-0.4,0-0.6,0.1c-0.2,0-0.4,0.1-0.5,0.1c-0.1,0-0.2,0-0.3,0c-0.2,0-0.5,0-0.9,0
			c-0.7,0-1.1,0.1-1.3,0.1c-0.2,0.1-0.3,0.3-0.3,0.5c0,0.2-0.1,0.4-0.1,0.7c-0.2,0.7-0.3,1.2-0.3,1.4l0.1,0c0.2,0,0.5,0,1-0.1
			s0.9-0.1,1.2-0.2c0.5-0.1,0.9-0.2,1.2-0.2c0.5,0,0.7,0.1,0.7,0.4c0,0.3-0.2,0.5-0.5,0.5c-0.3,0.1-0.9,0.2-1.9,0.3
			c-1.2,0.1-1.8,0.2-1.9,0.3c-0.1,0.1-0.2,0.4-0.2,1c-0.1,0.6-0.1,0.9-0.1,1.1v0.1c0,0.2,0.1,0.3,0.3,0.3l0.1,0c0.2,0,0.4,0,0.7,0
			l1-0.2c0.4-0.1,0.8-0.1,1.2-0.2c0.5-0.1,0.8-0.2,0.9-0.2c0.1,0,0.2,0,0.3,0.1c0.1,0.1,0.2,0.2,0.2,0.4c0,0.1,0,0.2-0.1,0.3
			c-0.4,0.2-0.8,0.3-1.4,0.3c-0.5,0-1.3,0.1-2.3,0.3c-0.5,0.1-0.9,0.1-1.1,0.1c-0.4,0-0.7,0-0.8-0.1c-0.1-0.1-0.2-0.2-0.2-0.5l0-0.2
			v0c0-0.1,0-0.2,0.1-0.4c0.1-0.3,0.2-0.7,0.3-1.5c0.1-0.7,0.2-1.3,0.2-1.7c0-0.1,0-0.3,0.1-0.5c0.2-0.9,0.2-1.5,0.2-2
			c0,0,0-0.1-0.1-0.2c0,0,0,0,0-0.1c0-0.1,0-0.2-0.1-0.2c0-0.1,0-0.1,0-0.2V104c0-0.1,0-0.1,0.1-0.2c0.1-0.1,0.2-0.1,0.3-0.1h0
			c0.2,0,0.3,0,0.5,0h0c0.1,0,0.5,0,1.2-0.1c0.7-0.1,1.6-0.2,2.6-0.4c0.1,0,0.2,0,0.2,0l0.1,0c0.3,0,0.5,0,0.6,0.1
			c0.1,0.1,0.2,0.2,0.2,0.4c0,0.1,0,0.2-0.1,0.3C127,104.1,126.9,104.1,126.9,104.2z"/>
		<path class="st0" d="M128.5,109.6c0-0.1,0.1-0.5,0.2-1.3c0.1-0.8,0.2-1.7,0.3-2.8c0.1-1.1,0.2-1.7,0.2-1.8c0-0.1,0.1-0.2,0.2-0.3
			c0.1-0.1,0.2-0.1,0.4-0.1c0.1,0,0.2,0.1,0.3,0.2c0.1,0.1,0.1,0.2,0.1,0.3c0,0.2,0,0.4-0.1,0.8c-0.1,0.5-0.2,1.5-0.4,2.9
			c-0.2,1.5-0.3,2.3-0.3,2.5c0,0.1,0,0.2,0.1,0.3c0,0,0.1,0.1,0.2,0.1c0.2,0,0.6-0.1,1.2-0.2c0.4-0.1,1.1-0.1,2.2-0.2
			c0.2,0,0.4,0,0.7-0.1c0.1,0,0.1,0,0.1,0c0.1,0,0.2,0,0.3,0.1c0.1,0.1,0.1,0.2,0.1,0.3c0,0.2-0.1,0.4-0.2,0.5s-0.3,0.2-0.5,0.2
			c-0.1,0-0.2,0-0.4,0c-0.2,0-0.4,0-0.5,0c-1.2,0-2.3,0.2-3.4,0.6c-0.2,0.1-0.3,0.1-0.5,0.1c-0.2,0-0.3-0.1-0.4-0.2
			c-0.1-0.1-0.1-0.3-0.1-0.4c0-0.1,0-0.3,0.1-0.5C128.4,110,128.4,109.8,128.5,109.6z"/>
		<path class="st0" d="M141.4,104.2c0,0-0.1,0-0.3,0s-0.4,0-0.6,0.1c-0.2,0-0.4,0.1-0.5,0.1c-0.1,0-0.2,0-0.3,0c-0.2,0-0.5,0-0.9,0
			c-0.7,0-1.1,0.1-1.3,0.1c-0.2,0.1-0.3,0.3-0.3,0.5c0,0.2-0.1,0.4-0.1,0.7c-0.2,0.7-0.3,1.2-0.3,1.4l0.1,0c0.2,0,0.5,0,1-0.1
			c0.5-0.1,0.9-0.1,1.2-0.2c0.5-0.1,0.9-0.2,1.2-0.2c0.5,0,0.7,0.1,0.7,0.4c0,0.3-0.2,0.5-0.5,0.5c-0.3,0.1-0.9,0.2-1.9,0.3
			c-1.2,0.1-1.8,0.2-1.9,0.3s-0.2,0.4-0.2,1c-0.1,0.6-0.1,0.9-0.1,1.1v0.1c0,0.2,0.1,0.3,0.3,0.3l0.1,0c0.2,0,0.4,0,0.7,0l1-0.2
			c0.4-0.1,0.8-0.1,1.2-0.2c0.5-0.1,0.8-0.2,0.9-0.2c0.1,0,0.2,0,0.3,0.1c0.1,0.1,0.2,0.2,0.2,0.4c0,0.1,0,0.2-0.1,0.3
			c-0.4,0.2-0.8,0.3-1.4,0.3c-0.5,0-1.3,0.1-2.3,0.3c-0.5,0.1-0.9,0.1-1.1,0.1c-0.4,0-0.7,0-0.8-0.1c-0.1-0.1-0.2-0.2-0.2-0.5l0-0.2
			v0c0-0.1,0-0.2,0.1-0.4c0.1-0.3,0.2-0.7,0.3-1.5c0.1-0.7,0.2-1.3,0.2-1.7c0-0.1,0-0.3,0.1-0.5c0.2-0.9,0.2-1.5,0.2-2
			c0,0,0-0.1-0.1-0.2c0,0,0,0,0-0.1c0-0.1,0-0.2-0.1-0.2c0-0.1,0-0.1,0-0.2V104c0-0.1,0-0.1,0.1-0.2c0.1-0.1,0.2-0.1,0.3-0.1h0
			c0.2,0,0.3,0,0.5,0h0c0.1,0,0.5,0,1.2-0.1c0.7-0.1,1.6-0.2,2.6-0.4c0.1,0,0.2,0,0.2,0l0.1,0c0.3,0,0.5,0,0.6,0.1
			c0.1,0.1,0.2,0.2,0.2,0.4c0,0.1,0,0.2-0.1,0.3C141.5,104.1,141.4,104.1,141.4,104.2z"/>
		<path class="st0" d="M142.2,104.6c0-0.1-0.1-0.2-0.1-0.3c0-0.2,0.1-0.3,0.2-0.3s0.5-0.1,1.1-0.1c0.7,0,1.4,0,1.9-0.1
			c0.6,0,1.5-0.2,2.6-0.3c0.5-0.1,0.9-0.1,1.3-0.1c0.2,0,0.4,0,0.6,0c0.2,0,0.3,0,0.4,0.1c0.1,0,0.1,0.1,0.2,0.2
			c0,0.1,0.1,0.2,0.1,0.2c0,0.3-0.1,0.4-0.3,0.4c-0.1,0-0.3,0-0.5,0c-0.2,0-0.5,0-0.8,0c-0.4,0-0.8,0-1.3,0.1s-0.8,0.1-0.9,0.3
			c-0.1,0.1-0.2,0.8-0.3,2.1c-0.1,1.3-0.2,2.2-0.2,2.9c0,0.3,0,0.6,0.1,1c0,0.1,0,0.1,0,0.1c0,0.2,0,0.3-0.1,0.4
			c-0.1,0.1-0.2,0.2-0.3,0.2c-0.2,0-0.3-0.1-0.5-0.3c-0.1-0.2-0.2-0.7-0.2-1.5c0-0.8,0.1-2.3,0.4-4.6c0-0.1,0-0.2,0-0.2
			c0-0.1-0.1-0.2-0.2-0.2c-0.2,0-0.6,0-1.2,0.1c-0.6,0.1-1,0.1-1.3,0.1C142.6,104.7,142.3,104.7,142.2,104.6z"/>
		<path class="st0" d="M156.4,104.2c0,0-0.1,0-0.3,0s-0.4,0-0.6,0.1c-0.2,0-0.4,0.1-0.5,0.1c-0.1,0-0.2,0-0.3,0c-0.2,0-0.5,0-0.9,0
			c-0.7,0-1.1,0.1-1.3,0.1c-0.2,0.1-0.3,0.3-0.3,0.5c0,0.2-0.1,0.4-0.1,0.7c-0.2,0.7-0.3,1.2-0.3,1.4l0.1,0c0.2,0,0.5,0,1-0.1
			c0.5-0.1,0.9-0.1,1.2-0.2c0.5-0.1,0.9-0.2,1.2-0.2c0.5,0,0.7,0.1,0.7,0.4c0,0.3-0.2,0.5-0.5,0.5c-0.3,0.1-0.9,0.2-1.9,0.3
			c-1.2,0.1-1.8,0.2-1.9,0.3s-0.2,0.4-0.2,1c-0.1,0.6-0.1,0.9-0.1,1.1v0.1c0,0.2,0.1,0.3,0.3,0.3l0.1,0c0.2,0,0.4,0,0.7,0l1-0.2
			c0.4-0.1,0.8-0.1,1.2-0.2c0.5-0.1,0.8-0.2,0.9-0.2c0.1,0,0.2,0,0.3,0.1c0.1,0.1,0.2,0.2,0.2,0.4c0,0.1,0,0.2-0.1,0.3
			c-0.4,0.2-0.8,0.3-1.4,0.3c-0.5,0-1.3,0.1-2.3,0.3c-0.5,0.1-0.9,0.1-1.1,0.1c-0.4,0-0.7,0-0.8-0.1c-0.1-0.1-0.2-0.2-0.2-0.5l0-0.2
			v0c0-0.1,0-0.2,0.1-0.4c0.1-0.3,0.2-0.7,0.3-1.5c0.1-0.7,0.2-1.3,0.2-1.7c0-0.1,0-0.3,0.1-0.5c0.2-0.9,0.2-1.5,0.2-2
			c0,0,0-0.1-0.1-0.2c0,0,0,0,0-0.1c0-0.1,0-0.2-0.1-0.2c0-0.1,0-0.1,0-0.2V104c0-0.1,0-0.1,0.1-0.2c0.1-0.1,0.2-0.1,0.3-0.1h0
			c0.2,0,0.3,0,0.5,0h0c0.1,0,0.5,0,1.2-0.1c0.7-0.1,1.6-0.2,2.6-0.4c0.1,0,0.2,0,0.2,0l0.1,0c0.3,0,0.5,0,0.6,0.1
			c0.1,0.1,0.2,0.2,0.2,0.4c0,0.1,0,0.2-0.1,0.3C156.5,104.1,156.4,104.1,156.4,104.2z"/>
	</g>
	<path class="st5" d="M148.5,35.1c0,0,0.1,0,0.1,0.1c0.6,0.2,0.9,0.6,0.9,1.2c0,0.7,0,1.4,0,2.2c0,0.2,0,0.4,0,0.7
		c0,6.1,0,12.2,0,18.3c0,1.9-0.8,3.3-2.3,4.5c-1.1,0.9-2.4,1.3-3.9,1.1c-1.7-0.2-2.9-1.2-3.3-2.8c-0.3-1.1-0.1-2.2,0.5-3.2
		c0.6-1.1,1.4-1.9,2.5-2.4c0.6-0.3,1.2-0.5,1.8-0.6c1-0.2,1.8-0.6,2.3-1.5c0.3-0.5,0.5-1.1,0.5-1.7c0-0.7,0-1.4,0-2.1
		c0-1.8,0-3.6,0-5.4c0-0.1,0-0.2,0-0.3c-5.8,1.1-11.6,2.2-17.4,3.3c0,0.1,0,0.2,0,0.3c0,4.6,0,9.1,0,13.7c0,1.5-0.5,2.8-1.5,3.8
		c-0.9,1-2.1,1.6-3.5,1.9c-0.1,0-0.1,0-0.2,0c-0.3,0-0.7,0-1,0c-0.2,0-0.3-0.1-0.5-0.1c-1.8-0.4-3-1.8-3-3.6c0-2.1,1.1-3.6,2.9-4.7
		c0.7-0.4,1.5-0.6,2.3-0.8c0.8-0.2,1.5-0.6,2-1.3c0.4-0.7,0.6-1.4,0.6-2.2c0-1.8,0-3.5,0-5.3c0-2.3,0-4.6,0-6.9
		c0-1.2,0.9-2.4,2.1-2.6c0.5-0.1,1.1-0.2,1.6-0.3c2.5-0.5,5-0.9,7.6-1.4c2.3-0.4,4.6-0.9,6.9-1.3c0.4-0.1,0.9-0.2,1.3-0.3
		C148.1,35.1,148.3,35.1,148.5,35.1z"/>
	<path class="st6" d="M23.2,250c0,0,50.5-84.8,51.2-85c1.5-0.4,28.6,13.9,29,14.6C103.6,180.2,85,250,85,250"/>
	<path class="st6" d="M127.3,250c0,0,2.1-47.4,1.3-47.7c7.6,3.5,33.6,8.7,39.1,11.5c2.1,1.1,12.4,36.2,12.4,36.2"/>
	<path class="st5" d="M88.8,142.2c18.9,14,24.9,3.1,34-2.8c1.5-1,4.5-2.1,6.2-1.5c4.1,1.6,3.4,6.6,1,10.3
		c-7.3,11.3-16.8,21.4-27.8,30.6c0,0-10.2-1.8-25.6-13.2c-1.6-1.7-6.2-46.6,13.3-72.8l0.4,49.5L88.8,142.2z"/>
	<path class="st5" d="M166.6,213.2c7.4-15.3,13.8-31.1,19-47.2c0.8-2.4,1.6-5,1.1-7.5c-0.5-2.7-2.5-5.1-5.1-6
		c-2.6-0.9-5.9,1.3-8,3.1c1.4-2.9,0.2-8.3-2.7-9.8c-2.9-1.5-6.7-0.5-8.7,2c0.2-2.9-1.7-5.9-4.4-7c-2.7-1.1-6.1-0.3-8.1,1.9
		c2.1-8.6,4.1-17.1,6.2-25.7c0.4-1.6,1.1-6.3-4.4-7.3c-5.6-1-6.2,2.3-7.3,4.7s-12.9,39.9-14.6,56c-0.1,0.9-0.2,1.9-0.7,2.7
		c-0.5,0.8-1.4,1.4-2.4,1.2c-0.6-0.2-1-0.6-1.4-1c-3.8-3.9-7.9-7.4-12.4-10.4c-3.7-2.5-8.6-4.7-12.4-2.3c-2.9,1.9-3.7,6.3-1.5,9.1
		c1.1,1.4,2.6,2.2,4.1,3.1c11.4,6.9,18.9,18.6,25.9,29.9L166.6,213.2z"/>
</g>
</svg>
