<svg id="original_mbile" data-name="original mbile" xmlns="http://www.w3.org/2000/svg" width="250" height="250.192" viewBox="0 0 250 250.192">
  <rect id="Rectangle_254" data-name="Rectangle 254" width="250" height="250" fill="#fff"/>
  <g id="Group_587" data-name="Group 587">
    <path id="Path_1541" data-name="Path 1541" d="M90.1,8.7c.4-.4,72.2-.9,87.6-1a2.9,2.9,0,0,1,2.9,2.9l-.5,154.3a3.058,3.058,0,0,1-2.9,3c-14.3.5-77.6,2.7-84.1,1.7a3.081,3.081,0,0,1-2-.9,4.284,4.284,0,0,1-.5-1.6C89.1,151.4,89.7,9.2,90.1,8.7Z" fill="#1c2125" stroke="#1c2125" stroke-miterlimit="10" stroke-width="0.5"/>
    <path id="Path_1542" data-name="Path 1542" d="M96.9,139.3a1.99,1.99,0,0,0,.7,1.6c.5.4,51.4,1.4,76-1,.6-.1,1.2-.1,1.6-.6a2.414,2.414,0,0,0,.4-1.7c0-39.4-.5-74.6-1.3-115.1,0-.6-.1-2.6-.5-3a2.506,2.506,0,0,0-1.9-.5c-13.3.1-75-2.5-75.1,1.6C96.8,25.6,96.2,123.6,96.9,139.3Z" fill="#d3d2d2" stroke="#1c2125" stroke-miterlimit="10" stroke-width="0.75"/>
    <path id="Path_1549" data-name="Path 1549" d="M101.9,114.4a4.61,4.61,0,0,0,4.7,4.6c21.1-.6,60.1.5,61.3-.5.9-.8.9-11.5.9-17.7a4.29,4.29,0,0,0-4.4-4.3c-11.3.1-41.8.4-58.1.8a4.508,4.508,0,0,0-4.3,4.5Z" fill="#1c2125" stroke="#1c2125" stroke-miterlimit="10" stroke-width="0.5"/>
    <g id="Group_586" data-name="Group 586">
      <path id="Path_1550" data-name="Path 1550" d="M112.9,104.6c0-.1-.1-.2-.2-.3-.3-.1-.4-.2-.4-.4a.758.758,0,0,1,.2-.4.52.52,0,0,1,.4-.2h.8a7.6,7.6,0,0,0,1.4-.1c.6,0,1-.1,1.3-.1a3.649,3.649,0,0,1,2.4.8,2.94,2.94,0,0,1,.9,2.2,3.5,3.5,0,0,1-1.3,2.7,8.543,8.543,0,0,1-3.7,1.8,4.351,4.351,0,0,0-1.3.5,1.329,1.329,0,0,1-.7.3.758.758,0,0,1-.4-.2,1.438,1.438,0,0,1-.2-.3.774.774,0,0,1,.1-.3c.1-.2.1-.3.2-.5a2.22,2.22,0,0,0,.1-.9c0-.4.1-1.1.2-2.1a17.776,17.776,0,0,1,.3-2C112.8,105,112.9,104.7,112.9,104.6Zm.9-.4a41.593,41.593,0,0,0-.6,5.5.749.749,0,0,0,.1.5h.2a13.728,13.728,0,0,0,1.8-.5,5.657,5.657,0,0,0,2.4-1.4,2.94,2.94,0,0,0,.9-2.2,1.865,1.865,0,0,0-.7-1.6,2.883,2.883,0,0,0-1.9-.6,10.9,10.9,0,0,0-1.7.1A.551.551,0,0,1,113.8,104.2Z" fill="#fff"/>
      <path id="Path_1551" data-name="Path 1551" d="M126.9,104.2h-.3a1.268,1.268,0,0,0-.6.1,4.331,4.331,0,0,0-.5.1h-1.2c-.7,0-1.1.1-1.3.1a.55.55,0,0,0-.3.5c0,.2-.1.4-.1.7a6.964,6.964,0,0,0-.3,1.4h.1a4.592,4.592,0,0,0,1-.1c.5-.1.9-.1,1.2-.2a7.385,7.385,0,0,1,1.2-.2c.5,0,.7.1.7.4a.472.472,0,0,1-.5.5,10.5,10.5,0,0,1-1.9.3,5.945,5.945,0,0,0-1.9.3,1.6,1.6,0,0,0-.2,1,5.94,5.94,0,0,0-.1,1.1v.1a.265.265,0,0,0,.3.3h.8l1-.2c.4-.1.8-.1,1.2-.2.5-.1.8-.2.9-.2a.367.367,0,0,1,.3.1.52.52,0,0,1,.2.4.367.367,0,0,1-.1.3,2.9,2.9,0,0,1-1.4.3,13.062,13.062,0,0,0-2.3.3,5.384,5.384,0,0,1-1.1.1c-.4,0-.7,0-.8-.1a.588.588,0,0,1-.2-.5v-.2h0a.756.756,0,0,1,.1-.4,7.516,7.516,0,0,0,.3-1.5,14.931,14.931,0,0,0,.2-1.7,1.087,1.087,0,0,1,.1-.5,8.284,8.284,0,0,0,.2-2,.31.31,0,0,0-.1-.2v-.1c0-.1,0-.2-.1-.2V104c0-.1,0-.1.1-.2a.367.367,0,0,1,.3-.1h.5a8.33,8.33,0,0,0,1.2-.1c.7-.1,1.6-.2,2.6-.4h.3c.3,0,.5,0,.6.1a.52.52,0,0,1,.2.4.367.367,0,0,1-.1.3C127,104.1,126.9,104.1,126.9,104.2Z" fill="#fff"/>
      <path id="Path_1552" data-name="Path 1552" d="M128.5,109.6c0-.1.1-.5.2-1.3s.2-1.7.3-2.8.2-1.7.2-1.8.1-.2.2-.3.2-.1.4-.1c.1,0,.2.1.3.2a.367.367,0,0,1,.1.3,2.814,2.814,0,0,1-.1.8c-.1.5-.2,1.5-.4,2.9-.2,1.5-.3,2.3-.3,2.5a.367.367,0,0,0,.1.3.349.349,0,0,0,.2.1c.2,0,.6-.1,1.2-.2.4-.1,1.1-.1,2.2-.2a1.952,1.952,0,0,0,.7-.1h.1a.354.354,0,0,1,.4.4.684.684,0,0,1-.7.7h-.9a9.737,9.737,0,0,0-3.4.6.9.9,0,0,1-.5.1.52.52,0,0,1-.4-.2.6.6,0,0,1-.1-.4,1.087,1.087,0,0,1,.1-.5A2.244,2.244,0,0,1,128.5,109.6Z" fill="#fff"/>
      <path id="Path_1553" data-name="Path 1553" d="M141.4,104.2h-.3a1.268,1.268,0,0,0-.6.1,4.332,4.332,0,0,0-.5.1h-1.2c-.7,0-1.1.1-1.3.1a.55.55,0,0,0-.3.5c0,.2-.1.4-.1.7a6.964,6.964,0,0,0-.3,1.4h.1a4.592,4.592,0,0,0,1-.1c.5-.1.9-.1,1.2-.2a7.385,7.385,0,0,1,1.2-.2c.5,0,.7.1.7.4a.472.472,0,0,1-.5.5,10.5,10.5,0,0,1-1.9.3,5.944,5.944,0,0,0-1.9.3,1.6,1.6,0,0,0-.2,1,5.939,5.939,0,0,0-.1,1.1v.1a.265.265,0,0,0,.3.3h.8l1-.2c.4-.1.8-.1,1.2-.2.5-.1.8-.2.9-.2a.367.367,0,0,1,.3.1.52.52,0,0,1,.2.4.367.367,0,0,1-.1.3,2.9,2.9,0,0,1-1.4.3,13.062,13.062,0,0,0-2.3.3,5.384,5.384,0,0,1-1.1.1c-.4,0-.7,0-.8-.1a.588.588,0,0,1-.2-.5v-.2h0a.756.756,0,0,1,.1-.4,7.515,7.515,0,0,0,.3-1.5,14.929,14.929,0,0,0,.2-1.7,1.087,1.087,0,0,1,.1-.5,8.284,8.284,0,0,0,.2-2,.31.31,0,0,0-.1-.2v-.1c0-.1,0-.2-.1-.2V104c0-.1,0-.1.1-.2a.367.367,0,0,1,.3-.1h.5a8.33,8.33,0,0,0,1.2-.1c.7-.1,1.6-.2,2.6-.4h.3c.3,0,.5,0,.6.1a.52.52,0,0,1,.2.4.367.367,0,0,1-.1.3C141.5,104.1,141.4,104.1,141.4,104.2Z" fill="#fff"/>
      <path id="Path_1554" data-name="Path 1554" d="M142.2,104.6c0-.1-.1-.2-.1-.3,0-.2.1-.3.2-.3a7.967,7.967,0,0,1,1.1-.1,10.889,10.889,0,0,0,1.9-.1c.6,0,1.5-.2,2.6-.3a6.151,6.151,0,0,1,1.3-.1h.6c.2,0,.3,0,.4.1.1,0,.1.1.2.2a.349.349,0,0,0,.1.2c0,.3-.1.4-.3.4h-1.3a6.151,6.151,0,0,0-1.3.1c-.5.1-.8.1-.9.3a7.325,7.325,0,0,0-.3,2.1c-.1,1.3-.2,2.2-.2,2.9a3.751,3.751,0,0,0,.1,1v.1c0,.2,0,.3-.1.4s-.2.2-.3.2c-.2,0-.3-.1-.5-.3a3.962,3.962,0,0,1-.2-1.5,39.542,39.542,0,0,1,.4-4.6v-.2a.215.215,0,0,0-.2-.2,6.822,6.822,0,0,0-1.2.1,7.174,7.174,0,0,1-1.3.1C142.6,104.7,142.3,104.7,142.2,104.6Z" fill="#fff"/>
      <path id="Path_1555" data-name="Path 1555" d="M156.4,104.2h-.3a1.268,1.268,0,0,0-.6.1,4.332,4.332,0,0,0-.5.1h-1.2c-.7,0-1.1.1-1.3.1a.55.55,0,0,0-.3.5c0,.2-.1.4-.1.7a6.964,6.964,0,0,0-.3,1.4h.1a4.592,4.592,0,0,0,1-.1c.5-.1.9-.1,1.2-.2a7.385,7.385,0,0,1,1.2-.2c.5,0,.7.1.7.4a.472.472,0,0,1-.5.5,10.5,10.5,0,0,1-1.9.3,5.944,5.944,0,0,0-1.9.3,1.6,1.6,0,0,0-.2,1,5.939,5.939,0,0,0-.1,1.1v.1a.265.265,0,0,0,.3.3h.8l1-.2c.4-.1.8-.1,1.2-.2.5-.1.8-.2.9-.2a.367.367,0,0,1,.3.1.52.52,0,0,1,.2.4.367.367,0,0,1-.1.3,2.9,2.9,0,0,1-1.4.3,13.062,13.062,0,0,0-2.3.3,5.384,5.384,0,0,1-1.1.1c-.4,0-.7,0-.8-.1a.588.588,0,0,1-.2-.5v-.2h0a.756.756,0,0,1,.1-.4,7.515,7.515,0,0,0,.3-1.5,14.929,14.929,0,0,0,.2-1.7,1.087,1.087,0,0,1,.1-.5,8.284,8.284,0,0,0,.2-2,.31.31,0,0,0-.1-.2v-.1c0-.1,0-.2-.1-.2V104c0-.1,0-.1.1-.2a.367.367,0,0,1,.3-.1h.5a8.33,8.33,0,0,0,1.2-.1c.7-.1,1.6-.2,2.6-.4h.3c.3,0,.5,0,.6.1a.52.52,0,0,1,.2.4.367.367,0,0,1-.1.3C156.5,104.1,156.4,104.1,156.4,104.2Z" fill="#fff"/>
    </g>
    <path id="Path_1557" data-name="Path 1557" d="M23.2,250s50.5-84.8,51.2-85c1.5-.4,28.6,13.9,29,14.6.2.6-18.4,70.4-18.4,70.4" fill="#8e8e8e" stroke="#1c2125" stroke-miterlimit="10" stroke-width="0.75"/>
    <path id="Path_1558" data-name="Path 1558" d="M127.3,250s2.1-47.4,1.3-47.7c7.6,3.5,33.6,8.7,39.1,11.5,2.1,1.1,12.4,36.2,12.4,36.2" fill="#8e8e8e" stroke="#1c2125" stroke-miterlimit="10" stroke-width="0.75"/>
    <path id="Path_1559" data-name="Path 1559" d="M88.8,142.2c18.9,14,24.9,3.1,34-2.8,1.5-1,4.5-2.1,6.2-1.5,4.1,1.6,3.4,6.6,1,10.3-7.3,11.3-16.8,21.4-27.8,30.6,0,0-10.2-1.8-25.6-13.2C75,163.9,70.4,119,89.9,92.8l.4,49.5Z" fill="#fff" stroke="#1c2125" stroke-miterlimit="10" stroke-width="0.75"/>
    <path id="Path_1560" data-name="Path 1560" d="M166.6,213.2a369.284,369.284,0,0,0,19-47.2c.8-2.4,1.6-5,1.1-7.5a7.992,7.992,0,0,0-5.1-6c-2.6-.9-5.9,1.3-8,3.1,1.4-2.9.2-8.3-2.7-9.8a7.248,7.248,0,0,0-8.7,2,7.316,7.316,0,0,0-4.4-7,7.473,7.473,0,0,0-8.1,1.9c2.1-8.6,4.1-17.1,6.2-25.7.4-1.6,1.1-6.3-4.4-7.3-5.6-1-6.2,2.3-7.3,4.7s-12.9,39.9-14.6,56a6.367,6.367,0,0,1-.7,2.7,2.356,2.356,0,0,1-2.4,1.2,3.587,3.587,0,0,1-1.4-1,76.839,76.839,0,0,0-12.4-10.4c-3.7-2.5-8.6-4.7-12.4-2.3a6.446,6.446,0,0,0-1.5,9.1,13.879,13.879,0,0,0,4.1,3.1c11.4,6.9,18.9,18.6,25.9,29.9Z" fill="#fff" stroke="#1c2125" stroke-miterlimit="10" stroke-width="0.75"/>
  </g>
</svg>
