<svg xmlns="http://www.w3.org/2000/svg" viewBox="0 0 25 26" width="40" height="42">
	<style>
		tspan { white-space:pre }
		.shp0 { fill: #ffffff } 
		.shp1 { fill: #2a3b56 } 
	</style>
	<g id="Group 168">
		<path id="Path 391" class="shp0" d="M17.75 12.95L16 11.71L16.03 9.57C16.03 9.19 15.82 8.84 15.48 8.67C15.15 8.49 14.74 8.53 14.43 8.76L12.72 10.04L10.69 9.35C10.33 9.23 9.93 9.32 9.66 9.59C9.39 9.86 9.3 10.26 9.42 10.62L10.11 12.65L8.83 14.36C8.6 14.66 8.57 15.07 8.74 15.41C8.9 15.75 9.25 15.96 9.63 15.96L9.64 15.96L11.78 15.93L13.02 17.68C13.24 17.99 13.61 18.15 13.99 18.09C14.37 18.03 14.68 17.76 14.79 17.4L15.43 15.36L17.47 14.72C17.83 14.61 18.1 14.3 18.16 13.92C18.22 13.55 18.06 13.17 17.75 12.95L17.75 12.95Z" />
		<path id="Path 392" fill-rule="evenodd" class="shp1" d="M23.68 6.9C25.44 8.66 25.44 11.51 23.68 13.27L12.2 24.75C11.86 25.09 11.32 25.09 10.99 24.75L8.28 22.05C7.95 21.71 7.95 21.17 8.28 20.83C9.14 19.97 9.14 18.58 8.28 17.72C7.41 16.89 6.04 16.89 5.17 17.72C4.83 18.04 4.29 18.04 3.95 17.72L1.25 15.02C0.92 14.68 0.92 14.14 1.25 13.8L12.07 2.99L12.07 2.99L12.07 2.99L12.74 2.32C14.49 0.56 17.34 0.56 19.1 2.32L23.68 6.9ZM21.2 13.33L12.67 4.81L3.07 14.41L4.63 15.97C6.18 14.99 8.2 15.21 9.49 16.51C10.79 17.8 11.01 19.83 10.03 21.37L11.59 22.93L21.2 13.33ZM22.47 12.05C23.56 10.96 23.56 9.2 22.47 8.11L17.89 3.53C16.79 2.48 15.05 2.48 13.95 3.53L13.89 3.59L22.41 12.12L22.47 12.05Z" />
		<path id="Path 393" fill-rule="evenodd" class="shp1" d="M16.35 13.08C16.56 13.22 16.67 13.48 16.63 13.73C16.59 13.99 16.4 14.2 16.16 14.27L14.78 14.7L14.34 16.09C14.27 16.33 14.06 16.51 13.8 16.55C13.55 16.59 13.29 16.49 13.15 16.28L12.31 15.09L10.86 15.11L10.85 15.11C10.6 15.11 10.36 14.97 10.25 14.74C10.13 14.51 10.16 14.24 10.31 14.03L11.18 12.87L10.71 11.5C10.63 11.25 10.69 10.99 10.87 10.8C11.06 10.62 11.33 10.56 11.57 10.64L12.94 11.11L14.1 10.24C14.31 10.09 14.59 10.06 14.81 10.18C15.04 10.3 15.19 10.53 15.18 10.79L15.17 12.24L16.35 13.08L16.35 13.08ZM14.45 13.39L14.09 13.14C13.91 13.01 13.8 12.8 13.81 12.58L13.81 12.14L13.47 12.4C13.29 12.54 13.05 12.57 12.84 12.5L12.43 12.36L12.57 12.77C12.64 12.98 12.61 13.22 12.47 13.39L12.21 13.74L12.65 13.74L12.66 13.74C12.88 13.74 13.08 13.84 13.21 14.02L13.46 14.38L13.59 13.96C13.65 13.75 13.82 13.58 14.03 13.52L14.45 13.39Z" />
	</g>
</svg>