<svg xmlns="http://www.w3.org/2000/svg" viewBox="0 0 17 17" width="40" height="40">
	<style>
		tspan { white-space:pre }
		.shp0 { fill: none;stroke: #2a3b56;stroke-linecap:round;stroke-width: 1.5 } 
	</style>
	<path id="Path" class="shp0" d="M11.01 10.26L9.79 11.79C7.9 10.68 6.32 9.1 5.21 7.21L6.74 5.99C7.1 5.69 7.23 5.19 7.04 4.75L5.64 1.62C5.44 1.15 4.92 0.91 4.43 1.03L1.78 1.72C1.27 1.86 0.94 2.35 1.01 2.87C1.97 9.68 7.32 15.03 14.12 15.99C14.65 16.06 15.14 15.73 15.28 15.22L15.97 12.57C16.09 12.08 15.85 11.56 15.38 11.36L12.25 9.96C11.81 9.77 11.31 9.9 11.01 10.26Z" />
</svg>