<svg xmlns="http://www.w3.org/2000/svg" viewBox="0 0 21 12" width="21" height="12">
	<style>
		tspan { white-space:pre }
		.shp0 { fill: #e2574c } 
		.shp1 { fill: #f4b459 } 
	</style>
	<g id="mastercard">
		<path id="Path" class="shp0" d="M13.5 6C13.5 9.31 10.59 12 7 12C3.41 12 0.5 9.31 0.5 6C0.5 2.69 3.41 0 7 0C10.59 0 13.5 2.69 13.5 6Z" />
		<path id="Path" class="shp1" d="M14 0C12.54 0 11.2 0.45 10.12 1.2L10.12 1.2C10.34 1.39 10.57 1.52 10.75 1.74L9.4 1.76C9.19 1.96 9 2.17 8.81 2.4L11.2 2.4C11.38 2.6 11.55 2.77 11.7 2.99L8.38 2.99C8.26 3.19 8.15 3.38 8.05 3.59L12.08 3.59C12.18 3.8 12.28 3.95 12.36 4.17L7.81 4.17C7.74 4.38 7.68 4.59 7.63 4.8L12.55 4.8C12.59 5.01 12.63 5.2 12.66 5.4L7.53 5.4C7.51 5.6 7.5 5.8 7.5 6L12.69 6C12.69 6.21 12.68 6.41 12.65 6.6L7.53 6.6C7.55 6.8 7.59 7 7.63 7.2L12.54 7.2C12.49 7.39 12.43 7.59 12.36 7.79L7.8 7.79C7.86 8 7.95 8.2 8.04 8.39L12.08 8.39C11.96 8.61 11.84 8.78 11.7 8.99L8.37 8.99C8.5 9.2 8.65 9.4 8.8 9.59L11.2 9.62C10.99 9.85 10.73 9.99 10.49 10.18C10.51 10.19 10.11 10.18 9.33 10.17C10.52 11.3 12.17 12 14 12C17.59 12 20.5 9.31 20.5 6C20.5 2.69 17.59 0 14 0Z" />
	</g>
</svg>