<svg xmlns="http://www.w3.org/2000/svg" viewBox="0 0 21 20" width="40" height="38">
	<style>
		tspan { white-space:pre }
		.shp0 { fill: none;stroke: #2a3b56;stroke-linecap:square;stroke-width: 2 } 
		.shp1 { fill: none;stroke: #2a3b56;stroke-width: 2 } 
	</style>
	<g id="position-pin">
		<path id="Path" class="shp0" d="M15.59 7.09C15.59 10.23 10.5 15.36 10.5 15.36C10.5 15.36 5.41 10.23 5.41 7.09C5.41 3.87 8.04 2 10.5 2C12.96 2 15.59 3.87 15.59 7.09Z" />
		<path id="Oval" class="shp0" d="M10.5 8.55C9.7 8.55 9.05 7.9 9.05 7.09C9.05 6.29 9.7 5.64 10.5 5.64C11.3 5.64 11.95 6.29 11.95 7.09C11.95 7.9 11.3 8.55 10.5 8.55Z" />
		<path id="Path" class="shp1" d="M14.86 13.99C17.05 14.38 18.5 15.05 18.5 15.82C18.5 17.02 14.92 18 10.5 18C6.08 18 2.5 17.02 2.5 15.82C2.5 15.05 3.95 14.38 6.14 13.99" />
	</g>
</svg>