<svg xmlns="http://www.w3.org/2000/svg" viewBox="0 0 12 13" width="40" height="43">
	<style>
		tspan { white-space:pre }
		.shp0 { fill: #008cff;stroke: #008cff;stroke-width: 0.5 } 
	</style>
	<path id="Path 1535" class="shp0" d="M4.55 2C3.94 2.09 3.3 2.18 2.74 2.26C2.49 2.31 2.34 2.62 2.46 2.84C2.55 2.97 2.65 3.11 2.74 3.24C0.88 4.9 0.55 7.75 2.07 9.8C3.67 11.97 6.75 12.43 8.92 10.83C10.11 9.94 10.83 8.57 10.89 7.09L10.12 7.05C10.07 8.3 9.45 9.46 8.45 10.21C6.62 11.56 4.05 11.18 2.69 9.34C1.42 7.64 1.67 5.29 3.18 3.87C3.25 3.96 3.31 4.05 3.37 4.13C3.54 4.35 3.85 4.38 4.01 4.15C4.37 3.64 4.56 3.13 4.92 2.61C5 2.49 5.01 2.33 4.94 2.21C4.83 2.05 4.71 2 4.55 2Z" />
</svg>