<svg width="468" height="468" xmlns="http://www.w3.org/2000/svg">

 <g>
  <title>background</title>
  <rect fill="none" id="canvas_background" height="402" width="582" y="-1" x="-1"/>
 </g>
 <g>
  <title>Layer 1</title>
  <circle id="svg_3" fill="#4F4F4F" r="16.218" cy="262.96" cx="430.931"/>
  <path id="svg_4" fill="#4F4F4F" d="m467.07,119.823l-38.432,-108.79c-2.293,-6.477 -8.418,-11.033 -15.288,-11.033l-358.7,0c-6.871,0 -12.995,4.556 -15.288,11.033l-38.432,108.677c-0.617,1.749 -0.93,3.672 -0.93,5.525l0,20.032c0,49.204 40.03,88.733 89.233,88.733c28.732,0 56.234,-13.887 72.902,-37.391c16.044,22.82 42.554,37.839 72.506,37.839c29.875,0 56.324,-14.847 72.38,-37.567c16.056,22.72 42.505,37.614 72.381,37.614c48.854,0 88.598,-39.729 88.598,-88.583l0,-20.678c0,-0.5 -0.485,-4.151 -0.93,-5.411zm-187.276,-87.823l8.983,77l-108.273,0l8.983,-77l90.307,0zm122.093,0l26.95,77l-107.399,0l-8.983,-77l89.432,0zm-335.774,0l90.714,0l-8.983,77l-108.681,0l26.95,-77z"/>
  <path id="svg_5" fill="#4F4F4F" d="m431,299.072c-8.957,0 -16,7.261 -16,16.218l0,56.71l-106,0l0,-79.294c0,-8.957 -7.289,-15.706 -16.247,-15.706l-117.506,0c-8.957,0 -16.247,6.749 -16.247,15.706l0,143.294l-106,0l0,-160.096c0,-8.957 -7.043,-16.218 -16,-16.218s-16,7.261 -16,16.218l0,175.424c0,8.957 7.113,16.672 16.069,16.672l393.861,0c8.957,0 16.069,-7.715 16.069,-16.672l0,-136.038c0.001,-8.957 -7.042,-16.218 -15.999,-16.218zm-192,136.928l0,-127l38,0l0,127l-38,0z"/>
 </g>
</svg>