<svg width="25" height="25" xmlns="http://www.w3.org/2000/svg">

 <g>
  <title>background</title>
  <rect fill="none" id="canvas_background" height="402" width="582" y="-1" x="-1"/>
 </g>
 <g>
  <title>Layer 1</title>
  <path id="svg_2" fill="#494B4C" d="m21.45,11.28c-0.09,-0.17 -0.26,-0.28 -0.45,-0.28l-2.5,0c-0.28,0 -0.5,0.22 -0.5,0.5l0,3c0,0.28 0.22,0.5 0.5,0.5l4,0c0.17,0 0.33,-0.09 0.43,-0.24c0.09,-0.15 0.1,-0.33 0.02,-0.49l-1.5,-2.99zm-2.45,2.72l0,-2l1.69,0l1,2l-2.69,0zm5.87,-0.92l-1.72,-3.4c-0.22,-0.41 -0.66,-0.68 -1.12,-0.68l-5.03,0l0,-2.75c0,-0.69 -0.56,-1.25 -1.25,-1.25l-14.5,0c-0.69,0 -1.25,0.56 -1.25,1.25l0,13.5c0,0.69 0.56,1.25 1.25,1.25l0.8,0c0.23,1.14 1.24,2 2.45,2s2.22,-0.86 2.45,-2l11.1,0c0.23,1.14 1.24,2 2.45,2s2.22,-0.86 2.45,-2l0.8,0c0.69,0 1.25,-0.56 1.25,-1.25l0,-6.1c0,-0.18 -0.04,-0.36 -0.13,-0.57zm-20.37,8.92c-0.83,0 -1.5,-0.67 -1.5,-1.5s0.67,-1.5 1.5,-1.5s1.5,0.67 1.5,1.5s-0.67,1.5 -1.5,1.5zm11.5,-2l-9.05,0c-0.23,-1.14 -1.24,-2 -2.45,-2s-2.22,0.86 -2.45,2l-0.8,0c-0.13,0 -0.25,-0.12 -0.25,-0.25l0,-13.5c0,-0.13 0.12,-0.25 0.25,-0.25l14.5,0c0.13,0 0.25,0.12 0.25,0.25l0,13.75zm4.5,2c-0.83,0 -1.5,-0.67 -1.5,-1.5s0.67,-1.5 1.5,-1.5s1.5,0.67 1.5,1.5s-0.67,1.5 -1.5,1.5zm3.5,-2.25c0,0.13 -0.12,0.25 -0.25,0.25l-0.8,0c-0.23,-1.14 -1.24,-2 -2.45,-2s-2.22,0.86 -2.45,2l-1.05,0l0,-10l5.03,0c0.09,0 0.18,0.06 0.22,0.14l1.71,3.38c0.04,0.07 0.04,0.1 0.04,0.13l0,6.1zm-12.35,-11.1l0.71,0.71l-5,5c-0.1,0.09 -0.23,0.14 -0.36,0.14s-0.26,-0.05 -0.35,-0.15l-2.5,-2.5l0.71,-0.71l2.14,2.15l4.65,-4.64z"/>
 </g>
</svg>