<svg width="60" height="60" xmlns="http://www.w3.org/2000/svg">

 <g>
  <title>background</title>
  <rect fill="none" id="canvas_background" height="402" width="582" y="-1" x="-1"/>
 </g>
 <g>
  <title>Layer 1</title>
  <path fill="#ffffff" id="svg_1" d="m29.8578,29.00016l-26.8578,0c-1.1046,0 -2,0.8955 -2,2l0,18c0,1.1045 0.8954,2 2,2l54,0c1.1046,0 2,-0.8955 2,-2l0,-18c0,-1.1045 -0.8954,-2 -2,-2l-4.71111,0" class="st5"/>
  <path fill="#0a94e3" id="svg_2" d="m57,52l-54,0c-1.6543,0 -3,-1.3457 -3,-3l0,-18c0,-1.6543 1.3457,-3 3,-3l26.85791,0c0.55225,0 1,0.44775 1,1s-0.44775,1 -1,1l-26.85791,0c-0.55127,0 -1,0.44873 -1,1l0,18c0,0.55127 0.44873,1 1,1l54,0c0.55127,0 1,-0.44873 1,-1l0,-18c0,-0.55127 -0.44873,-1 -1,-1l-4.71094,0c-0.55224,0 -1,-0.44775 -1,-1s0.44776,-1 1,-1l4.71094,0c1.6543,0 3,1.3457 3,3l0,18c0,1.6543 -1.3457,3 -3,3z" class="st1"/>
  <path fill="#c2e4f8" id="svg_3" d="m56.4255,19.20686l-5.6322,-5.6322l1.40799,-1.408c1.55531,-1.5553 4.0769,-1.5553 5.63221,0l0,0c1.55529,1.5553 1.55529,4.0769 0,5.6322l-1.408,1.408z" class="st3"/>
  <path fill="#0a94e3" id="svg_4" d="m56.42529,20.20703l0,0c-0.26513,0 -0.51953,-0.10547 -0.70703,-0.29297l-5.63183,-5.63232c-0.39063,-0.39063 -0.39063,-1.02344 0,-1.41406l1.40771,-1.40821c1.94238,-1.94238 5.104,-1.94238 7.04639,0c1.94238,1.94287 1.94238,5.10401 0,7.04639l-1.40821,1.4082c-0.1875,0.1875 -0.44189,0.29297 -0.70703,0.29297zm-4.21777,-6.63232l4.21777,4.21826l0.70117,-0.70117c1.1626,-1.1626 1.1626,-3.05518 0,-4.21826c-1.16308,-1.16211 -3.05517,-1.16211 -4.21826,0l-0.70068,0.70117z" class="st1"/>
  <rect fill="#ffffff" id="svg_5" y="22.600796" x="32.984848" width="20.863892" transform="matrix(0.7071068,-0.7071068,0.7071068,0.7071068,-6.080791,38.4863968) " height="7.965134" class="st5"/>
  <path fill="#0a94e3" id="svg_6" d="m38.85645,37.77588c-0.25586,0 -0.51172,-0.09766 -0.70704,-0.29297l-5.63232,-5.63232c-0.39063,-0.39063 -0.39063,-1.02344 0,-1.41407l14.75293,-14.75293c0.39062,-0.39062 1.02344,-0.39062 1.41406,0l5.63233,5.63233c0.39062,0.39062 0.39062,1.02344 0,1.41406l-14.75293,14.75293c-0.19532,0.19531 -0.45118,0.29297 -0.70703,0.29297zm-4.21827,-6.63233l4.21827,4.21827l13.33886,-13.33887l-4.21826,-4.21826l-13.33887,13.33886z" class="st1"/>
  <rect fill="#c2e4f8" id="svg_7" y="13.816246" x="50.210064" width="3.982567" transform="matrix(0.7071068,-0.7071068,0.7071068,0.7071068,2.7037587,42.1250763) " height="7.965134" class="st3"/>
  <path fill="#0a94e3" id="svg_8" d="m53.60938,23.02295c-0.25586,0 -0.51172,-0.09766 -0.70704,-0.29297l-5.63232,-5.63232c-0.1875,-0.1875 -0.29297,-0.4419 -0.29297,-0.70703s0.10547,-0.51954 0.29297,-0.70704l2.81641,-2.81591c0.39062,-0.39063 1.02343,-0.39063 1.41406,0l5.63183,5.63232c0.39063,0.39063 0.39063,1.02344 0,1.41406l-2.81591,2.81592c-0.19532,0.19531 -0.45118,0.29297 -0.70703,0.29297zm-4.21827,-6.63232l4.21827,4.21826l1.40185,-1.40186l-4.21777,-4.21826l-1.40235,1.40186z" class="st1"/>
  <polygon fill="#c2e4f8" id="svg_9" points="29,41.000164 33.2241974,31.1437626 38.8563957,36.7759628 " class="st3"/>
  <path fill="#0a94e3" id="svg_10" d="m29,42c-0.25977,0 -0.51562,-0.10156 -0.70703,-0.29297c-0.28906,-0.28906 -0.37305,-0.7251 -0.21192,-1.10107l4.22413,-9.85645c0.13037,-0.30469 0.4038,-0.52539 0.72998,-0.58789c0.32519,-0.06348 0.66113,0.04004 0.89599,0.2749l5.63233,5.63233c0.23486,0.23437 0.33789,0.57031 0.2749,0.89599c-0.0625,0.32618 -0.2832,0.59961 -0.58789,0.72998l-9.85645,4.22413c-0.12695,0.05468 -0.26123,0.08105 -0.39404,0.08105zm4.56152,-9.10498l-2.65771,6.20117l6.20117,-2.65771l-3.54346,-3.54346z" class="st1"/>
 </g>
</svg>