<svg width="60" height="60" xmlns="http://www.w3.org/2000/svg">

 <g>
  <title>background</title>
  <rect fill="none" id="canvas_background" height="402" width="582" y="-1" x="-1"/>
 </g>
 <g>
  <title>Layer 1</title>
  <path fill="#c2e4f8" id="svg_1" d="m16.00027,23l-8.00001,0l-7,13l0,1l18,0l0,6c0,1.10461 0.89539,2 2,2l18,0c1.10462,0 2,-0.89539 2,-2l0,-6l18,0l0,-1l-7,-13l-8,0" class="st0"/>
  <path fill="#0a94e3" id="svg_2" d="m39.00049,46l-18,0c-1.6543,0 -3,-1.3457 -3,-3l0,-5l-17,0c-0.55225,0 -1,-0.44727 -1,-1l0,-1c0,-0.16504 0.04101,-0.32812 0.11963,-0.47363l7,-13c0.17431,-0.32422 0.51269,-0.52637 0.88037,-0.52637l8,0c0.55224,0 1,0.44727 1,1s-0.44776,1 -1,1l-7.40283,0l-6.46143,12l16.86426,0c0.55224,0 1,0.44727 1,1l0,6c0,0.55176 0.44873,1 1,1l18,0c0.55127,0 1,-0.44824 1,-1l0,-6c0,-0.55273 0.44775,-1 1,-1l16.86426,0l-6.46143,-12l-7.40283,0c-0.55225,0 -1,-0.44727 -1,-1s0.44775,-1 1,-1l8,0c0.36767,0 0.70605,0.20215 0.88037,0.52637l7,13c0.07861,0.14551 0.11963,0.30859 0.11963,0.47363l0,1c0,0.55273 -0.44776,1 -1,1l-17,0l0,5c0,1.6543 -1.3457,3 -3,3z" class="st1"/>
  <path fill="#ffffff" id="svg_3" d="m41.00026,43c0,1.10461 -0.89538,2 -2,2l-17.99999,0c-1.10462,0 -2,-0.89539 -2,-2l0,-6l-18,0l0,18c0,1.10449 0.89538,2 2,2l54,0c1.10461,0 2,-0.89551 2,-2l0,-18l-18,0l0,6l-0.00001,0z" class="st2"/>
  <path fill="#0a94e3" id="svg_4" d="m57.00049,58l-54,0c-1.6543,0 -3,-1.3457 -3,-3l0,-18c0,-0.55273 0.44775,-1 1,-1l18,0c0.55224,0 1,0.44727 1,1l0,6c0,0.55176 0.44873,1 1,1l18,0c0.55127,0 1,-0.44824 1,-1l0,-6c0,-0.55273 0.44775,-1 1,-1l18,0c0.55224,0 1,0.44727 1,1l0,18c0,1.6543 -1.3457,3 -3,3zm-55,-20l0,17c0,0.55176 0.44873,1 1,1l54,0c0.55127,0 1,-0.44824 1,-1l0,-17l-16,0l0,5c0,1.6543 -1.3457,3 -3,3l-18,0c-1.6543,0 -3,-1.3457 -3,-3l0,-5l-16,0z" class="st1"/>
  <path fill="#0a94e3" id="svg_5" d="m30.00049,32c-0.55225,0 -1,-0.44727 -1,-1l0,-24c0,-0.55273 0.44775,-1 1,-1s1,0.44727 1,1l0,24c0,0.55273 -0.44776,1 -1,1z" class="st1"/>
  <path fill="#0a94e3" id="svg_6" d="m30.00049,32c-0.25586,0 -0.51172,-0.09766 -0.70703,-0.29297c-0.39063,-0.39062 -0.39063,-1.02344 0,-1.41406l6,-6c0.39062,-0.39063 1.02343,-0.39063 1.41406,0s0.39062,1.02344 0,1.41406l-6,6c-0.19531,0.19531 -0.45117,0.29297 -0.70703,0.29297z" class="st1"/>
  <path fill="#0a94e3" id="svg_7" d="m30.00049,32c-0.25586,0 -0.51172,-0.09766 -0.70703,-0.29297l-6,-6c-0.39063,-0.39062 -0.39063,-1.02344 0,-1.41406s1.02343,-0.39063 1.41406,0l6,6c0.39062,0.39062 0.39062,1.02344 0,1.41406c-0.19531,0.19531 -0.45117,0.29297 -0.70703,0.29297z" class="st1"/>
 </g>
</svg>