<svg width="56" height="56" xmlns="http://www.w3.org/2000/svg">

 <g>
  <title>background</title>
  <rect fill="none" id="canvas_background" height="402" width="582" y="-1" x="-1"/>
 </g>
 <g>
  <title>Layer 1</title>
  <path id="svg_1" fill="#002A41" d="m42.998,16c-0.863,0 -1.598,0.547 -1.879,1.309l-6.125,16.691l-4.246,-11.398c-0.566,-1.516 -2.031,-2.602 -3.75,-2.602c-1.891,0 -3.477,1.312 -3.891,3.078l-2.109,8.918l-2.301,-5.531c-0.605,-1.449 -2.035,-2.469 -3.699,-2.469c-1.625,0 -3.023,0.969 -3.652,2.363l-2.172,4.82c-0.113,0.251 -0.176,0.528 -0.176,0.821c0,1.105 0.895,2 2,2c0.812,0 1.508,-0.484 1.824,-1.18l2.176,-4.82l2.305,5.531c0.602,1.445 2.031,2.465 3.695,2.465c1.891,0 3.477,-1.316 3.891,-3.078l2.109,-8.918l4.25,11.398c0.57,1.52 2.031,2.602 3.75,2.602c1.73,0 3.199,-1.098 3.758,-2.629l6.121,-16.684c0.078,-0.211 0.121,-0.445 0.121,-0.688c0,-1.104 -0.894,-1.999 -2,-1.999z"/>
 </g>
</svg>